<svg width="31" height="33" viewBox="0 0 31 33" fill="none" xmlns="http://www.w3.org/2000/svg">
<g clip-path="url(#clip0_529_1560)">
<path d="M1.29167 6.53071H4.82567C5.10291 7.61659 5.7081 8.57519 6.54788 9.25861C7.38766 9.94204 8.41536 10.3123 9.47244 10.3123C10.5295 10.3123 11.5572 9.94204 12.397 9.25861C13.2368 8.57519 13.842 7.61659 14.1192 6.53071H29.7083C30.0509 6.53071 30.3794 6.38584 30.6217 6.12798C30.8639 5.87012 31 5.52038 31 5.15571C31 4.79103 30.8639 4.4413 30.6217 4.18343C30.3794 3.92557 30.0509 3.78071 29.7083 3.78071H14.1192C13.842 2.69482 13.2368 1.73623 12.397 1.0528C11.5572 0.369375 10.5295 -0.000900269 9.47244 -0.000900269C8.41536 -0.000900269 7.38766 0.369375 6.54788 1.0528C5.7081 1.73623 5.10291 2.69482 4.82567 3.78071H1.29167C0.949095 3.78071 0.620555 3.92557 0.37832 4.18343C0.136086 4.4413 0 4.79103 0 5.15571C0 5.52038 0.136086 5.87012 0.37832 6.12798C0.620555 6.38584 0.949095 6.53071 1.29167 6.53071ZM9.47179 2.74946C9.91886 2.74946 10.3559 2.89058 10.7276 3.15498C11.0993 3.41938 11.3891 3.79519 11.5601 4.23487C11.7312 4.67456 11.776 5.15838 11.6888 5.62514C11.6016 6.09191 11.3863 6.52066 11.0701 6.85718C10.754 7.1937 10.3513 7.42287 9.91278 7.51572C9.4743 7.60857 9.0198 7.56091 8.60677 7.37879C8.19373 7.19667 7.8407 6.88825 7.59232 6.49255C7.34395 6.09684 7.21138 5.63162 7.21138 5.15571C7.21206 4.51775 7.45043 3.90614 7.87419 3.45503C8.29795 3.00393 8.8725 2.75018 9.47179 2.74946Z" fill="white"/>
<path d="M29.7083 15.125H26.1743C25.8976 14.0389 25.2926 13.0799 24.4529 12.3962C23.6132 11.7125 22.5854 11.3421 21.5282 11.3421C20.471 11.3421 19.4432 11.7125 18.6035 12.3962C17.7638 13.0799 17.1589 14.0389 16.8821 15.125H1.29167C0.949095 15.125 0.620555 15.2699 0.37832 15.5277C0.136086 15.7856 0 16.1353 0 16.5C0 16.8647 0.136086 17.2144 0.37832 17.4723C0.620555 17.7301 0.949095 17.875 1.29167 17.875H16.8821C17.1589 18.9611 17.7638 19.9201 18.6035 20.6038C19.4432 21.2875 20.471 21.658 21.5282 21.658C22.5854 21.658 23.6132 21.2875 24.4529 20.6038C25.2926 19.9201 25.8976 18.9611 26.1743 17.875H29.7083C30.0509 17.875 30.3794 17.7301 30.6217 17.4723C30.8639 17.2144 31 16.8647 31 16.5C31 16.1353 30.8639 15.7856 30.6217 15.5277C30.3794 15.2699 30.0509 15.125 29.7083 15.125ZM21.5282 18.9063C21.0811 18.9063 20.6441 18.7651 20.2724 18.5007C19.9007 18.2363 19.6109 17.8605 19.4399 17.4208C19.2688 16.9812 19.224 16.4973 19.3112 16.0306C19.3984 15.5638 19.6137 15.135 19.9299 14.7985C20.246 14.462 20.6487 14.2328 21.0872 14.14C21.5257 14.0471 21.9802 14.0948 22.3932 14.2769C22.8063 14.459 23.1593 14.7675 23.4077 15.1632C23.6561 15.5589 23.7886 16.0241 23.7886 16.5C23.7879 17.138 23.5496 17.7496 23.1258 18.2007C22.702 18.6518 22.1275 18.9055 21.5282 18.9063Z" fill="white"/>
<path d="M29.7083 26.4688H14.1192C13.842 25.3829 13.2368 24.4243 12.397 23.7409C11.5572 23.0574 10.5295 22.6871 9.47244 22.6871C8.41536 22.6871 7.38766 23.0574 6.54788 23.7409C5.7081 24.4243 5.1029 25.3829 4.82567 26.4688H1.29167C0.949095 26.4688 0.620555 26.6136 0.37832 26.8715C0.136086 27.1293 0 27.4791 0 27.8438C0 28.2084 0.136086 28.5582 0.37832 28.816C0.620555 29.0739 0.949095 29.2188 1.29167 29.2188H4.82567C5.1029 30.3046 5.7081 31.2632 6.54788 31.9467C7.38766 32.6301 8.41536 33.0004 9.47244 33.0004C10.5295 33.0004 11.5572 32.6301 12.397 31.9467C13.2368 31.2632 13.842 30.3046 14.1192 29.2188H29.7083C30.0509 29.2188 30.3794 29.0739 30.6217 28.816C30.8639 28.5582 31 28.2084 31 27.8438C31 27.4791 30.8639 27.1293 30.6217 26.8715C30.3794 26.6136 30.0509 26.4688 29.7083 26.4688ZM9.47179 30.25C9.02472 30.25 8.5877 30.1089 8.21597 29.8445C7.84425 29.5801 7.55452 29.2043 7.38344 28.7646C7.21235 28.3249 7.16759 27.8411 7.25481 27.3743C7.34203 26.9076 7.55731 26.4788 7.87344 26.1423C8.18956 25.8058 8.59233 25.5766 9.03081 25.4837C9.46928 25.3909 9.92378 25.4385 10.3368 25.6207C10.7499 25.8028 11.1029 26.1112 11.3513 26.5069C11.5996 26.9026 11.7322 27.3678 11.7322 27.8438C11.7312 28.4816 11.4927 29.093 11.069 29.544C10.6453 29.9951 10.071 30.2489 9.47179 30.25Z" fill="white"/>
</g>
<defs>
<clipPath id="clip0_529_1560">
<rect width="31" height="33" fill="white"/>
</clipPath>
</defs>
</svg>
