<svg width="591" height="62" viewBox="0 0 591 62" fill="none" xmlns="http://www.w3.org/2000/svg">
<rect width="591" height="62" rx="20" fill="#00C2FF"/>
<path d="M209.289 24.6211C210.109 24.6211 210.819 24.7383 211.418 24.9727C212.017 25.194 212.538 25.5 212.98 25.8906V28.625C212.668 28.3906 212.342 28.1628 212.004 27.9414C211.665 27.7201 211.281 27.5378 210.852 27.3945C210.435 27.2513 209.94 27.1797 209.367 27.1797C208.586 27.1797 207.876 27.3685 207.238 27.7461C206.6 28.1237 206.092 28.6315 205.715 29.2695C205.337 29.9076 205.148 30.6367 205.148 31.457C205.148 32.2643 205.337 32.9935 205.715 33.6445C206.092 34.2826 206.6 34.7904 207.238 35.168C207.876 35.5326 208.586 35.7148 209.367 35.7148C210.24 35.7148 210.969 35.5846 211.555 35.3242C212.154 35.0508 212.694 34.7188 213.176 34.3281V36.9648C212.733 37.3685 212.18 37.694 211.516 37.9414C210.852 38.1758 210.109 38.293 209.289 38.293C208.352 38.293 207.466 38.1302 206.633 37.8047C205.799 37.4661 205.064 36.9974 204.426 36.3984C203.788 35.7865 203.286 35.0638 202.922 34.2305C202.557 33.3971 202.375 32.4727 202.375 31.457C202.375 30.4414 202.557 29.5169 202.922 28.6836C203.286 27.8503 203.788 27.1341 204.426 26.5352C205.064 25.9232 205.799 25.4544 206.633 25.1289C207.466 24.7904 208.352 24.6211 209.289 24.6211ZM220.168 27.8828C221.132 27.8828 222.01 28.1172 222.805 28.5859C223.599 29.0417 224.237 29.6667 224.719 30.4609C225.214 31.2422 225.461 32.1211 225.461 33.0977C225.461 34.0742 225.214 34.9531 224.719 35.7344C224.237 36.5156 223.599 37.1406 222.805 37.6094C222.01 38.0651 221.132 38.293 220.168 38.293C219.217 38.293 218.339 38.0651 217.531 37.6094C216.737 37.1406 216.099 36.5156 215.617 35.7344C215.135 34.9531 214.895 34.0742 214.895 33.0977C214.895 32.1211 215.135 31.2422 215.617 30.4609C216.099 29.6667 216.737 29.0417 217.531 28.5859C218.339 28.1172 219.217 27.8828 220.168 27.8828ZM220.168 30.2852C219.699 30.2852 219.263 30.3958 218.859 30.6172C218.456 30.8385 218.13 31.1576 217.883 31.5742C217.648 31.9909 217.531 32.4987 217.531 33.0977C217.531 33.6966 217.648 34.2044 217.883 34.6211C218.13 35.0378 218.456 35.3568 218.859 35.5781C219.263 35.7865 219.699 35.8906 220.168 35.8906C220.637 35.8906 221.073 35.7865 221.477 35.5781C221.88 35.3568 222.206 35.0378 222.453 34.6211C222.701 34.2044 222.824 33.6966 222.824 33.0977C222.824 32.4987 222.701 31.9909 222.453 31.5742C222.206 31.1576 221.88 30.8385 221.477 30.6172C221.073 30.3958 220.637 30.2852 220.168 30.2852ZM230.285 28.1367V29.543C230.585 29.1393 230.988 28.7617 231.496 28.4102C232.017 28.0586 232.609 27.8828 233.273 27.8828C234.276 27.8828 235.116 28.2214 235.793 28.8984C236.47 29.5755 236.809 30.5911 236.809 31.9453V38H234.328L234.309 32.2773C234.309 31.6133 234.146 31.1185 233.82 30.793C233.508 30.4674 233.072 30.3047 232.512 30.3047C232.069 30.3047 231.652 30.4479 231.262 30.7344C230.884 31.0208 230.559 31.3594 230.285 31.75V38H227.805V28.1367H230.285ZM242.141 28.1367V29.543C242.44 29.1393 242.844 28.7617 243.352 28.4102C243.872 28.0586 244.465 27.8828 245.129 27.8828C246.132 27.8828 246.971 28.2214 247.648 28.8984C248.326 29.5755 248.664 30.5911 248.664 31.9453V38H246.184L246.164 32.2773C246.164 31.6133 246.001 31.1185 245.676 30.793C245.363 30.4674 244.927 30.3047 244.367 30.3047C243.924 30.3047 243.508 30.4479 243.117 30.7344C242.74 31.0208 242.414 31.3594 242.141 31.75V38H239.66V28.1367H242.141ZM255.832 27.8828C256.796 27.8828 257.622 28.0911 258.312 28.5078C259.016 28.9245 259.549 29.5039 259.914 30.2461C260.292 30.9753 260.48 31.8216 260.48 32.7852V33.8398H253.332C253.462 34.5039 253.788 35.0378 254.309 35.4414C254.829 35.8451 255.467 36.0469 256.223 36.0469C256.939 36.0469 257.59 35.9036 258.176 35.6172C258.762 35.3307 259.23 35.0378 259.582 34.7383L259.562 37.043C259.25 37.3164 258.781 37.5964 258.156 37.8828C257.544 38.1562 256.867 38.293 256.125 38.293C255.148 38.293 254.257 38.0716 253.449 37.6289C252.655 37.1862 252.017 36.5807 251.535 35.8125C251.066 35.0443 250.832 34.1654 250.832 33.1758C250.832 32.2122 251.047 31.3333 251.477 30.5391C251.906 29.7448 252.499 29.1068 253.254 28.625C254.009 28.1302 254.868 27.8828 255.832 27.8828ZM255.773 30.0508C255.161 30.0508 254.647 30.2396 254.23 30.6172C253.814 30.9948 253.527 31.5026 253.371 32.1406H258.098C258.046 31.4375 257.785 30.9167 257.316 30.5781C256.848 30.2266 256.333 30.0508 255.773 30.0508ZM267.238 27.8828C267.967 27.8828 268.566 28 269.035 28.2344C269.504 28.4688 269.875 28.6966 270.148 28.918V31.2031C269.81 30.9557 269.426 30.7474 268.996 30.5781C268.579 30.4089 268.065 30.3242 267.453 30.3242C266.958 30.3242 266.496 30.4479 266.066 30.6953C265.65 30.9427 265.318 31.2747 265.07 31.6914C264.823 32.1081 264.699 32.5833 264.699 33.1172C264.699 33.9245 264.96 34.5885 265.48 35.1094C266.001 35.6302 266.659 35.8906 267.453 35.8906C268.065 35.8906 268.579 35.8125 268.996 35.6562C269.426 35.487 269.81 35.2786 270.148 35.0312V37.2969C269.875 37.5312 269.504 37.7591 269.035 37.9805C268.566 38.1888 267.967 38.293 267.238 38.293C266.236 38.293 265.344 38.0586 264.562 37.5898C263.794 37.1081 263.182 36.4766 262.727 35.6953C262.284 34.901 262.062 34.0417 262.062 33.1172C262.062 32.4271 262.186 31.7695 262.434 31.1445C262.694 30.5195 263.059 29.9661 263.527 29.4844C263.996 28.9896 264.543 28.599 265.168 28.3125C265.806 28.026 266.496 27.8828 267.238 27.8828ZM275.93 25.2656V28.1367H278.664V30.207H275.93V34.4648C275.93 34.9076 276.027 35.2591 276.223 35.5195C276.431 35.7669 276.737 35.8906 277.141 35.8906C277.492 35.8906 277.792 35.8516 278.039 35.7734C278.299 35.6953 278.54 35.5846 278.762 35.4414V37.4141C278.514 37.6615 278.202 37.8698 277.824 38.0391C277.46 38.2083 276.997 38.293 276.438 38.293C275.552 38.293 274.829 38.013 274.27 37.4531C273.723 36.8802 273.449 36.099 273.449 35.1094V30.207H271.672V28.9375C272.297 28.7161 272.87 28.2995 273.391 27.6875C273.924 27.0755 274.348 26.2682 274.66 25.2656H275.93ZM290.734 25.2656V28.1367H293.469V30.207H290.734V34.4648C290.734 34.9076 290.832 35.2591 291.027 35.5195C291.236 35.7669 291.542 35.8906 291.945 35.8906C292.297 35.8906 292.596 35.8516 292.844 35.7734C293.104 35.6953 293.345 35.5846 293.566 35.4414V37.4141C293.319 37.6615 293.007 37.8698 292.629 38.0391C292.264 38.2083 291.802 38.293 291.242 38.293C290.357 38.293 289.634 38.013 289.074 37.4531C288.527 36.8802 288.254 36.099 288.254 35.1094V30.207H286.477V28.9375C287.102 28.7161 287.674 28.2995 288.195 27.6875C288.729 27.0755 289.152 26.2682 289.465 25.2656H290.734ZM300.598 27.8828C301.561 27.8828 302.44 28.1172 303.234 28.5859C304.029 29.0417 304.667 29.6667 305.148 30.4609C305.643 31.2422 305.891 32.1211 305.891 33.0977C305.891 34.0742 305.643 34.9531 305.148 35.7344C304.667 36.5156 304.029 37.1406 303.234 37.6094C302.44 38.0651 301.561 38.293 300.598 38.293C299.647 38.293 298.768 38.0651 297.961 37.6094C297.167 37.1406 296.529 36.5156 296.047 35.7344C295.565 34.9531 295.324 34.0742 295.324 33.0977C295.324 32.1211 295.565 31.2422 296.047 30.4609C296.529 29.6667 297.167 29.0417 297.961 28.5859C298.768 28.1172 299.647 27.8828 300.598 27.8828ZM300.598 30.2852C300.129 30.2852 299.693 30.3958 299.289 30.6172C298.885 30.8385 298.56 31.1576 298.312 31.5742C298.078 31.9909 297.961 32.4987 297.961 33.0977C297.961 33.6966 298.078 34.2044 298.312 34.6211C298.56 35.0378 298.885 35.3568 299.289 35.5781C299.693 35.7865 300.129 35.8906 300.598 35.8906C301.066 35.8906 301.503 35.7865 301.906 35.5781C302.31 35.3568 302.635 35.0378 302.883 34.6211C303.13 34.2044 303.254 33.6966 303.254 33.0977C303.254 32.4987 303.13 31.9909 302.883 31.5742C302.635 31.1576 302.31 30.8385 301.906 30.6172C301.503 30.3958 301.066 30.2852 300.598 30.2852ZM318 27.8828C318.534 27.8828 319.074 28.0065 319.621 28.2539C320.168 28.5013 320.624 28.8333 320.988 29.25V28.1367H323.469V38H320.988V36.3398C320.702 36.8737 320.285 37.3359 319.738 37.7266C319.191 38.1042 318.553 38.293 317.824 38.293C317.03 38.293 316.294 38.0911 315.617 37.6875C314.953 37.2839 314.419 36.6979 314.016 35.9297C313.612 35.1615 313.41 34.2305 313.41 33.1367C313.41 32.043 313.612 31.1055 314.016 30.3242C314.432 29.543 314.986 28.944 315.676 28.5273C316.379 28.0977 317.154 27.8828 318 27.8828ZM318.508 30.3047C317.987 30.3047 317.538 30.4414 317.16 30.7148C316.796 30.9753 316.509 31.3203 316.301 31.75C316.092 32.1797 315.988 32.6419 315.988 33.1367C315.988 33.8789 316.21 34.5104 316.652 35.0312C317.108 35.5521 317.707 35.8125 318.449 35.8125C318.892 35.8125 319.302 35.6953 319.68 35.4609C320.07 35.2266 320.383 34.901 320.617 34.4844C320.865 34.0547 320.988 33.5404 320.988 32.9414V31.5352C320.637 31.1576 320.253 30.8581 319.836 30.6367C319.432 30.4154 318.99 30.3047 318.508 30.3047ZM346.086 28.1367L342.668 38H340.871L338.566 31.6133L336.262 38H334.445L331.047 28.1367H333.742L335.559 33.9766L337.688 28.1367H339.465L341.574 33.9766L343.391 28.1367H346.086ZM351.32 27.8828C351.854 27.8828 352.395 28.0065 352.941 28.2539C353.488 28.5013 353.944 28.8333 354.309 29.25V28.1367H356.789V38H354.309V36.3398C354.022 36.8737 353.605 37.3359 353.059 37.7266C352.512 38.1042 351.874 38.293 351.145 38.293C350.35 38.293 349.615 38.0911 348.938 37.6875C348.273 37.2839 347.74 36.6979 347.336 35.9297C346.932 35.1615 346.73 34.2305 346.73 33.1367C346.73 32.043 346.932 31.1055 347.336 30.3242C347.753 29.543 348.306 28.944 348.996 28.5273C349.699 28.0977 350.474 27.8828 351.32 27.8828ZM351.828 30.3047C351.307 30.3047 350.858 30.4414 350.48 30.7148C350.116 30.9753 349.829 31.3203 349.621 31.75C349.413 32.1797 349.309 32.6419 349.309 33.1367C349.309 33.8789 349.53 34.5104 349.973 35.0312C350.428 35.5521 351.027 35.8125 351.77 35.8125C352.212 35.8125 352.622 35.6953 353 35.4609C353.391 35.2266 353.703 34.901 353.938 34.4844C354.185 34.0547 354.309 33.5404 354.309 32.9414V31.5352C353.957 31.1576 353.573 30.8581 353.156 30.6367C352.753 30.4154 352.31 30.3047 351.828 30.3047ZM362.316 23.9375V38H359.836V23.9375H362.316ZM367.824 23.9375V38H365.344V23.9375H367.824ZM375.168 27.8828C376.132 27.8828 376.958 28.0911 377.648 28.5078C378.352 28.9245 378.885 29.5039 379.25 30.2461C379.628 30.9753 379.816 31.8216 379.816 32.7852V33.8398H372.668C372.798 34.5039 373.124 35.0378 373.645 35.4414C374.165 35.8451 374.803 36.0469 375.559 36.0469C376.275 36.0469 376.926 35.9036 377.512 35.6172C378.098 35.3307 378.566 35.0378 378.918 34.7383L378.898 37.043C378.586 37.3164 378.117 37.5964 377.492 37.8828C376.88 38.1562 376.203 38.293 375.461 38.293C374.484 38.293 373.592 38.0716 372.785 37.6289C371.991 37.1862 371.353 36.5807 370.871 35.8125C370.402 35.0443 370.168 34.1654 370.168 33.1758C370.168 32.2122 370.383 31.3333 370.812 30.5391C371.242 29.7448 371.835 29.1068 372.59 28.625C373.345 28.1302 374.204 27.8828 375.168 27.8828ZM375.109 30.0508C374.497 30.0508 373.983 30.2396 373.566 30.6172C373.15 30.9948 372.863 31.5026 372.707 32.1406H377.434C377.382 31.4375 377.121 30.9167 376.652 30.5781C376.184 30.2266 375.669 30.0508 375.109 30.0508ZM385.656 25.2656V28.1367H388.391V30.207H385.656V34.4648C385.656 34.9076 385.754 35.2591 385.949 35.5195C386.158 35.7669 386.464 35.8906 386.867 35.8906C387.219 35.8906 387.518 35.8516 387.766 35.7734C388.026 35.6953 388.267 35.5846 388.488 35.4414V37.4141C388.241 37.6615 387.928 37.8698 387.551 38.0391C387.186 38.2083 386.724 38.293 386.164 38.293C385.279 38.293 384.556 38.013 383.996 37.4531C383.449 36.8802 383.176 36.099 383.176 35.1094V30.207H381.398V28.9375C382.023 28.7161 382.596 28.2995 383.117 27.6875C383.651 27.0755 384.074 26.2682 384.387 25.2656H385.656Z" fill="white"/>
</svg>
