<svg width="247" height="48" viewBox="0 0 247 48" fill="none" xmlns="http://www.w3.org/2000/svg">
<rect width="247" height="48" rx="24" fill="#00C2FF"/>
<path d="M37.2891 17.6211C38.1094 17.6211 38.819 17.7383 39.418 17.9727C40.0169 18.194 40.5378 18.5 40.9805 18.8906V21.625C40.668 21.3906 40.3424 21.1628 40.0039 20.9414C39.6654 20.7201 39.2812 20.5378 38.8516 20.3945C38.4349 20.2513 37.9401 20.1797 37.3672 20.1797C36.5859 20.1797 35.8763 20.3685 35.2383 20.7461C34.6003 21.1237 34.0924 21.6315 33.7148 22.2695C33.3372 22.9076 33.1484 23.6367 33.1484 24.457C33.1484 25.2643 33.3372 25.9935 33.7148 26.6445C34.0924 27.2826 34.6003 27.7904 35.2383 28.168C35.8763 28.5326 36.5859 28.7148 37.3672 28.7148C38.2396 28.7148 38.9688 28.5846 39.5547 28.3242C40.1536 28.0508 40.694 27.7188 41.1758 27.3281V29.9648C40.7331 30.3685 40.1797 30.694 39.5156 30.9414C38.8516 31.1758 38.1094 31.293 37.2891 31.293C36.3516 31.293 35.4661 31.1302 34.6328 30.8047C33.7995 30.4661 33.0638 29.9974 32.4258 29.3984C31.7878 28.7865 31.2865 28.0638 30.9219 27.2305C30.5573 26.3971 30.375 25.4727 30.375 24.457C30.375 23.4414 30.5573 22.5169 30.9219 21.6836C31.2865 20.8503 31.7878 20.1341 32.4258 19.5352C33.0638 18.9232 33.7995 18.4544 34.6328 18.1289C35.4661 17.7904 36.3516 17.6211 37.2891 17.6211ZM48.168 20.8828C49.1315 20.8828 50.0104 21.1172 50.8047 21.5859C51.599 22.0417 52.237 22.6667 52.7188 23.4609C53.2135 24.2422 53.4609 25.1211 53.4609 26.0977C53.4609 27.0742 53.2135 27.9531 52.7188 28.7344C52.237 29.5156 51.599 30.1406 50.8047 30.6094C50.0104 31.0651 49.1315 31.293 48.168 31.293C47.2174 31.293 46.3385 31.0651 45.5312 30.6094C44.737 30.1406 44.099 29.5156 43.6172 28.7344C43.1354 27.9531 42.8945 27.0742 42.8945 26.0977C42.8945 25.1211 43.1354 24.2422 43.6172 23.4609C44.099 22.6667 44.737 22.0417 45.5312 21.5859C46.3385 21.1172 47.2174 20.8828 48.168 20.8828ZM48.168 23.2852C47.6992 23.2852 47.263 23.3958 46.8594 23.6172C46.4557 23.8385 46.1302 24.1576 45.8828 24.5742C45.6484 24.9909 45.5312 25.4987 45.5312 26.0977C45.5312 26.6966 45.6484 27.2044 45.8828 27.6211C46.1302 28.0378 46.4557 28.3568 46.8594 28.5781C47.263 28.7865 47.6992 28.8906 48.168 28.8906C48.6367 28.8906 49.0729 28.7865 49.4766 28.5781C49.8802 28.3568 50.2057 28.0378 50.4531 27.6211C50.7005 27.2044 50.8242 26.6966 50.8242 26.0977C50.8242 25.4987 50.7005 24.9909 50.4531 24.5742C50.2057 24.1576 49.8802 23.8385 49.4766 23.6172C49.0729 23.3958 48.6367 23.2852 48.168 23.2852ZM58.2852 21.1367V22.543C58.5846 22.1393 58.9883 21.7617 59.4961 21.4102C60.0169 21.0586 60.6094 20.8828 61.2734 20.8828C62.276 20.8828 63.1159 21.2214 63.793 21.8984C64.4701 22.5755 64.8086 23.5911 64.8086 24.9453V31H62.3281L62.3086 25.2773C62.3086 24.6133 62.1458 24.1185 61.8203 23.793C61.5078 23.4674 61.0716 23.3047 60.5117 23.3047C60.069 23.3047 59.6523 23.4479 59.2617 23.7344C58.8841 24.0208 58.5586 24.3594 58.2852 24.75V31H55.8047V21.1367H58.2852ZM70.1406 21.1367V22.543C70.4401 22.1393 70.8438 21.7617 71.3516 21.4102C71.8724 21.0586 72.4648 20.8828 73.1289 20.8828C74.1315 20.8828 74.9714 21.2214 75.6484 21.8984C76.3255 22.5755 76.6641 23.5911 76.6641 24.9453V31H74.1836L74.1641 25.2773C74.1641 24.6133 74.0013 24.1185 73.6758 23.793C73.3633 23.4674 72.9271 23.3047 72.3672 23.3047C71.9245 23.3047 71.5078 23.4479 71.1172 23.7344C70.7396 24.0208 70.4141 24.3594 70.1406 24.75V31H67.6602V21.1367H70.1406ZM83.832 20.8828C84.7956 20.8828 85.6224 21.0911 86.3125 21.5078C87.0156 21.9245 87.5495 22.5039 87.9141 23.2461C88.2917 23.9753 88.4805 24.8216 88.4805 25.7852V26.8398H81.332C81.4622 27.5039 81.7878 28.0378 82.3086 28.4414C82.8294 28.8451 83.4674 29.0469 84.2227 29.0469C84.9388 29.0469 85.5898 28.9036 86.1758 28.6172C86.7617 28.3307 87.2305 28.0378 87.582 27.7383L87.5625 30.043C87.25 30.3164 86.7812 30.5964 86.1562 30.8828C85.5443 31.1562 84.8672 31.293 84.125 31.293C83.1484 31.293 82.2565 31.0716 81.4492 30.6289C80.6549 30.1862 80.0169 29.5807 79.5352 28.8125C79.0664 28.0443 78.832 27.1654 78.832 26.1758C78.832 25.2122 79.0469 24.3333 79.4766 23.5391C79.9062 22.7448 80.4987 22.1068 81.2539 21.625C82.0091 21.1302 82.8685 20.8828 83.832 20.8828ZM83.7734 23.0508C83.1615 23.0508 82.6471 23.2396 82.2305 23.6172C81.8138 23.9948 81.5273 24.5026 81.3711 25.1406H86.0977C86.0456 24.4375 85.7852 23.9167 85.3164 23.5781C84.8477 23.2266 84.3333 23.0508 83.7734 23.0508ZM95.2383 20.8828C95.9674 20.8828 96.5664 21 97.0352 21.2344C97.5039 21.4688 97.875 21.6966 98.1484 21.918V24.2031C97.8099 23.9557 97.4258 23.7474 96.9961 23.5781C96.5794 23.4089 96.0651 23.3242 95.4531 23.3242C94.9583 23.3242 94.4961 23.4479 94.0664 23.6953C93.6497 23.9427 93.3177 24.2747 93.0703 24.6914C92.8229 25.1081 92.6992 25.5833 92.6992 26.1172C92.6992 26.9245 92.9596 27.5885 93.4805 28.1094C94.0013 28.6302 94.6589 28.8906 95.4531 28.8906C96.0651 28.8906 96.5794 28.8125 96.9961 28.6562C97.4258 28.487 97.8099 28.2786 98.1484 28.0312V30.2969C97.875 30.5312 97.5039 30.7591 97.0352 30.9805C96.5664 31.1888 95.9674 31.293 95.2383 31.293C94.2357 31.293 93.3438 31.0586 92.5625 30.5898C91.7943 30.1081 91.1823 29.4766 90.7266 28.6953C90.2839 27.901 90.0625 27.0417 90.0625 26.1172C90.0625 25.4271 90.1862 24.7695 90.4336 24.1445C90.694 23.5195 91.0586 22.9661 91.5273 22.4844C91.9961 21.9896 92.543 21.599 93.168 21.3125C93.806 21.026 94.4961 20.8828 95.2383 20.8828ZM103.93 18.2656V21.1367H106.664V23.207H103.93V27.4648C103.93 27.9076 104.027 28.2591 104.223 28.5195C104.431 28.7669 104.737 28.8906 105.141 28.8906C105.492 28.8906 105.792 28.8516 106.039 28.7734C106.299 28.6953 106.54 28.5846 106.762 28.4414V30.4141C106.514 30.6615 106.202 30.8698 105.824 31.0391C105.46 31.2083 104.997 31.293 104.438 31.293C103.552 31.293 102.829 31.013 102.27 30.4531C101.723 29.8802 101.449 29.099 101.449 28.1094V23.207H99.6719V21.9375C100.297 21.7161 100.87 21.2995 101.391 20.6875C101.924 20.0755 102.348 19.2682 102.66 18.2656H103.93ZM118.734 18.2656V21.1367H121.469V23.207H118.734V27.4648C118.734 27.9076 118.832 28.2591 119.027 28.5195C119.236 28.7669 119.542 28.8906 119.945 28.8906C120.297 28.8906 120.596 28.8516 120.844 28.7734C121.104 28.6953 121.345 28.5846 121.566 28.4414V30.4141C121.319 30.6615 121.007 30.8698 120.629 31.0391C120.264 31.2083 119.802 31.293 119.242 31.293C118.357 31.293 117.634 31.013 117.074 30.4531C116.527 29.8802 116.254 29.099 116.254 28.1094V23.207H114.477V21.9375C115.102 21.7161 115.674 21.2995 116.195 20.6875C116.729 20.0755 117.152 19.2682 117.465 18.2656H118.734ZM128.598 20.8828C129.561 20.8828 130.44 21.1172 131.234 21.5859C132.029 22.0417 132.667 22.6667 133.148 23.4609C133.643 24.2422 133.891 25.1211 133.891 26.0977C133.891 27.0742 133.643 27.9531 133.148 28.7344C132.667 29.5156 132.029 30.1406 131.234 30.6094C130.44 31.0651 129.561 31.293 128.598 31.293C127.647 31.293 126.768 31.0651 125.961 30.6094C125.167 30.1406 124.529 29.5156 124.047 28.7344C123.565 27.9531 123.324 27.0742 123.324 26.0977C123.324 25.1211 123.565 24.2422 124.047 23.4609C124.529 22.6667 125.167 22.0417 125.961 21.5859C126.768 21.1172 127.647 20.8828 128.598 20.8828ZM128.598 23.2852C128.129 23.2852 127.693 23.3958 127.289 23.6172C126.885 23.8385 126.56 24.1576 126.312 24.5742C126.078 24.9909 125.961 25.4987 125.961 26.0977C125.961 26.6966 126.078 27.2044 126.312 27.6211C126.56 28.0378 126.885 28.3568 127.289 28.5781C127.693 28.7865 128.129 28.8906 128.598 28.8906C129.066 28.8906 129.503 28.7865 129.906 28.5781C130.31 28.3568 130.635 28.0378 130.883 27.6211C131.13 27.2044 131.254 26.6966 131.254 26.0977C131.254 25.4987 131.13 24.9909 130.883 24.5742C130.635 24.1576 130.31 23.8385 129.906 23.6172C129.503 23.3958 129.066 23.2852 128.598 23.2852ZM146 20.8828C146.534 20.8828 147.074 21.0065 147.621 21.2539C148.168 21.5013 148.624 21.8333 148.988 22.25V21.1367H151.469V31H148.988V29.3398C148.702 29.8737 148.285 30.3359 147.738 30.7266C147.191 31.1042 146.553 31.293 145.824 31.293C145.03 31.293 144.294 31.0911 143.617 30.6875C142.953 30.2839 142.419 29.6979 142.016 28.9297C141.612 28.1615 141.41 27.2305 141.41 26.1367C141.41 25.043 141.612 24.1055 142.016 23.3242C142.432 22.543 142.986 21.944 143.676 21.5273C144.379 21.0977 145.154 20.8828 146 20.8828ZM146.508 23.3047C145.987 23.3047 145.538 23.4414 145.16 23.7148C144.796 23.9753 144.509 24.3203 144.301 24.75C144.092 25.1797 143.988 25.6419 143.988 26.1367C143.988 26.8789 144.21 27.5104 144.652 28.0312C145.108 28.5521 145.707 28.8125 146.449 28.8125C146.892 28.8125 147.302 28.6953 147.68 28.4609C148.07 28.2266 148.383 27.901 148.617 27.4844C148.865 27.0547 148.988 26.5404 148.988 25.9414V24.5352C148.637 24.1576 148.253 23.8581 147.836 23.6367C147.432 23.4154 146.99 23.3047 146.508 23.3047ZM174.086 21.1367L170.668 31H168.871L166.566 24.6133L164.262 31H162.445L159.047 21.1367H161.742L163.559 26.9766L165.688 21.1367H167.465L169.574 26.9766L171.391 21.1367H174.086ZM179.32 20.8828C179.854 20.8828 180.395 21.0065 180.941 21.2539C181.488 21.5013 181.944 21.8333 182.309 22.25V21.1367H184.789V31H182.309V29.3398C182.022 29.8737 181.605 30.3359 181.059 30.7266C180.512 31.1042 179.874 31.293 179.145 31.293C178.35 31.293 177.615 31.0911 176.938 30.6875C176.273 30.2839 175.74 29.6979 175.336 28.9297C174.932 28.1615 174.73 27.2305 174.73 26.1367C174.73 25.043 174.932 24.1055 175.336 23.3242C175.753 22.543 176.306 21.944 176.996 21.5273C177.699 21.0977 178.474 20.8828 179.32 20.8828ZM179.828 23.3047C179.307 23.3047 178.858 23.4414 178.48 23.7148C178.116 23.9753 177.829 24.3203 177.621 24.75C177.413 25.1797 177.309 25.6419 177.309 26.1367C177.309 26.8789 177.53 27.5104 177.973 28.0312C178.428 28.5521 179.027 28.8125 179.77 28.8125C180.212 28.8125 180.622 28.6953 181 28.4609C181.391 28.2266 181.703 27.901 181.938 27.4844C182.185 27.0547 182.309 26.5404 182.309 25.9414V24.5352C181.957 24.1576 181.573 23.8581 181.156 23.6367C180.753 23.4154 180.31 23.3047 179.828 23.3047ZM190.316 16.9375V31H187.836V16.9375H190.316ZM195.824 16.9375V31H193.344V16.9375H195.824ZM203.168 20.8828C204.132 20.8828 204.958 21.0911 205.648 21.5078C206.352 21.9245 206.885 22.5039 207.25 23.2461C207.628 23.9753 207.816 24.8216 207.816 25.7852V26.8398H200.668C200.798 27.5039 201.124 28.0378 201.645 28.4414C202.165 28.8451 202.803 29.0469 203.559 29.0469C204.275 29.0469 204.926 28.9036 205.512 28.6172C206.098 28.3307 206.566 28.0378 206.918 27.7383L206.898 30.043C206.586 30.3164 206.117 30.5964 205.492 30.8828C204.88 31.1562 204.203 31.293 203.461 31.293C202.484 31.293 201.592 31.0716 200.785 30.6289C199.991 30.1862 199.353 29.5807 198.871 28.8125C198.402 28.0443 198.168 27.1654 198.168 26.1758C198.168 25.2122 198.383 24.3333 198.812 23.5391C199.242 22.7448 199.835 22.1068 200.59 21.625C201.345 21.1302 202.204 20.8828 203.168 20.8828ZM203.109 23.0508C202.497 23.0508 201.983 23.2396 201.566 23.6172C201.15 23.9948 200.863 24.5026 200.707 25.1406H205.434C205.382 24.4375 205.121 23.9167 204.652 23.5781C204.184 23.2266 203.669 23.0508 203.109 23.0508ZM213.656 18.2656V21.1367H216.391V23.207H213.656V27.4648C213.656 27.9076 213.754 28.2591 213.949 28.5195C214.158 28.7669 214.464 28.8906 214.867 28.8906C215.219 28.8906 215.518 28.8516 215.766 28.7734C216.026 28.6953 216.267 28.5846 216.488 28.4414V30.4141C216.241 30.6615 215.928 30.8698 215.551 31.0391C215.186 31.2083 214.724 31.293 214.164 31.293C213.279 31.293 212.556 31.013 211.996 30.4531C211.449 29.8802 211.176 29.099 211.176 28.1094V23.207H209.398V21.9375C210.023 21.7161 210.596 21.2995 211.117 20.6875C211.651 20.0755 212.074 19.2682 212.387 18.2656H213.656Z" fill="white"/>
</svg>
