<svg width="243" height="46" viewBox="0 0 243 46" fill="none" xmlns="http://www.w3.org/2000/svg">
<g filter="url(#filter0_d_420_670)">
<rect x="4" width="235" height="38" rx="19" fill="#00C2FF"/>
</g>
<path d="M56.3418 13.9658C56.957 13.9658 57.4893 14.0537 57.9385 14.2295C58.3877 14.3955 58.7783 14.625 59.1104 14.918V16.9688C58.876 16.793 58.6318 16.6221 58.3779 16.4561C58.124 16.29 57.8359 16.1533 57.5137 16.0459C57.2012 15.9385 56.8301 15.8848 56.4004 15.8848C55.8145 15.8848 55.2822 16.0264 54.8037 16.3096C54.3252 16.5928 53.9443 16.9736 53.6611 17.4521C53.3779 17.9307 53.2363 18.4775 53.2363 19.0928C53.2363 19.6982 53.3779 20.2451 53.6611 20.7334C53.9443 21.2119 54.3252 21.5928 54.8037 21.876C55.2822 22.1494 55.8145 22.2861 56.4004 22.2861C57.0547 22.2861 57.6016 22.1885 58.041 21.9932C58.4902 21.7881 58.8955 21.5391 59.2568 21.2461V23.2236C58.9248 23.5264 58.5098 23.7705 58.0117 23.9561C57.5137 24.1318 56.957 24.2197 56.3418 24.2197C55.6387 24.2197 54.9746 24.0977 54.3496 23.8535C53.7246 23.5996 53.1729 23.248 52.6943 22.7988C52.2158 22.3398 51.8398 21.7979 51.5664 21.1729C51.293 20.5479 51.1562 19.8545 51.1562 19.0928C51.1562 18.3311 51.293 17.6377 51.5664 17.0127C51.8398 16.3877 52.2158 15.8506 52.6943 15.4014C53.1729 14.9424 53.7246 14.5908 54.3496 14.3467C54.9746 14.0928 55.6387 13.9658 56.3418 13.9658ZM64.501 16.4121C65.2236 16.4121 65.8828 16.5879 66.4785 16.9395C67.0742 17.2812 67.5527 17.75 67.9141 18.3457C68.2852 18.9316 68.4707 19.5908 68.4707 20.3232C68.4707 21.0557 68.2852 21.7148 67.9141 22.3008C67.5527 22.8867 67.0742 23.3555 66.4785 23.707C65.8828 24.0488 65.2236 24.2197 64.501 24.2197C63.7881 24.2197 63.1289 24.0488 62.5234 23.707C61.9277 23.3555 61.4492 22.8867 61.0879 22.3008C60.7266 21.7148 60.5459 21.0557 60.5459 20.3232C60.5459 19.5908 60.7266 18.9316 61.0879 18.3457C61.4492 17.75 61.9277 17.2812 62.5234 16.9395C63.1289 16.5879 63.7881 16.4121 64.501 16.4121ZM64.501 18.2139C64.1494 18.2139 63.8223 18.2969 63.5195 18.4629C63.2168 18.6289 62.9727 18.8682 62.7871 19.1807C62.6113 19.4932 62.5234 19.874 62.5234 20.3232C62.5234 20.7725 62.6113 21.1533 62.7871 21.4658C62.9727 21.7783 63.2168 22.0176 63.5195 22.1836C63.8223 22.3398 64.1494 22.418 64.501 22.418C64.8525 22.418 65.1797 22.3398 65.4824 22.1836C65.7852 22.0176 66.0293 21.7783 66.2148 21.4658C66.4004 21.1533 66.4932 20.7725 66.4932 20.3232C66.4932 19.874 66.4004 19.4932 66.2148 19.1807C66.0293 18.8682 65.7852 18.6289 65.4824 18.4629C65.1797 18.2969 64.8525 18.2139 64.501 18.2139ZM72.0889 16.6025V17.6572C72.3135 17.3545 72.6162 17.0713 72.9971 16.8076C73.3877 16.5439 73.832 16.4121 74.3301 16.4121C75.082 16.4121 75.7119 16.666 76.2197 17.1738C76.7275 17.6816 76.9814 18.4434 76.9814 19.459V24H75.1211L75.1064 19.708C75.1064 19.21 74.9844 18.8389 74.7402 18.5947C74.5059 18.3506 74.1787 18.2285 73.7588 18.2285C73.4268 18.2285 73.1143 18.3359 72.8213 18.5508C72.5381 18.7656 72.2939 19.0195 72.0889 19.3125V24H70.2285V16.6025H72.0889ZM80.9805 16.6025V17.6572C81.2051 17.3545 81.5078 17.0713 81.8887 16.8076C82.2793 16.5439 82.7236 16.4121 83.2217 16.4121C83.9736 16.4121 84.6035 16.666 85.1113 17.1738C85.6191 17.6816 85.873 18.4434 85.873 19.459V24H84.0127L83.998 19.708C83.998 19.21 83.876 18.8389 83.6318 18.5947C83.3975 18.3506 83.0703 18.2285 82.6504 18.2285C82.3184 18.2285 82.0059 18.3359 81.7129 18.5508C81.4297 18.7656 81.1855 19.0195 80.9805 19.3125V24H79.1201V16.6025H80.9805ZM91.249 16.4121C91.9717 16.4121 92.5918 16.5684 93.1094 16.8809C93.6367 17.1934 94.0371 17.6279 94.3105 18.1846C94.5938 18.7314 94.7354 19.3662 94.7354 20.0889V20.8799H89.374C89.4717 21.3779 89.7158 21.7783 90.1064 22.0811C90.4971 22.3838 90.9756 22.5352 91.542 22.5352C92.0791 22.5352 92.5674 22.4277 93.0068 22.2129C93.4463 21.998 93.7979 21.7783 94.0615 21.5537L94.0469 23.2822C93.8125 23.4873 93.4609 23.6973 92.9922 23.9121C92.5332 24.1172 92.0254 24.2197 91.4688 24.2197C90.7363 24.2197 90.0674 24.0537 89.4619 23.7217C88.8662 23.3896 88.3877 22.9355 88.0264 22.3594C87.6748 21.7832 87.499 21.124 87.499 20.3818C87.499 19.6592 87.6602 19 87.9824 18.4043C88.3047 17.8086 88.749 17.3301 89.3154 16.9688C89.8818 16.5977 90.5264 16.4121 91.249 16.4121ZM91.2051 18.0381C90.7461 18.0381 90.3604 18.1797 90.0479 18.4629C89.7354 18.7461 89.5205 19.127 89.4033 19.6055H92.9482C92.9092 19.0781 92.7139 18.6875 92.3623 18.4336C92.0107 18.1699 91.625 18.0381 91.2051 18.0381ZM99.8037 16.4121C100.351 16.4121 100.8 16.5 101.151 16.6758C101.503 16.8516 101.781 17.0225 101.986 17.1885V18.9023C101.732 18.7168 101.444 18.5605 101.122 18.4336C100.81 18.3066 100.424 18.2432 99.9648 18.2432C99.5938 18.2432 99.2471 18.3359 98.9248 18.5215C98.6123 18.707 98.3633 18.9561 98.1777 19.2686C97.9922 19.5811 97.8994 19.9375 97.8994 20.3379C97.8994 20.9434 98.0947 21.4414 98.4854 21.832C98.876 22.2227 99.3691 22.418 99.9648 22.418C100.424 22.418 100.81 22.3594 101.122 22.2422C101.444 22.1152 101.732 21.959 101.986 21.7734V23.4727C101.781 23.6484 101.503 23.8193 101.151 23.9854C100.8 24.1416 100.351 24.2197 99.8037 24.2197C99.0518 24.2197 98.3828 24.0439 97.7969 23.6924C97.2207 23.3311 96.7617 22.8574 96.4199 22.2715C96.0879 21.6758 95.9219 21.0312 95.9219 20.3379C95.9219 19.8203 96.0146 19.3271 96.2002 18.8584C96.3955 18.3896 96.6689 17.9746 97.0205 17.6133C97.3721 17.2422 97.7822 16.9492 98.251 16.7344C98.7295 16.5195 99.2471 16.4121 99.8037 16.4121ZM106.322 14.4492V16.6025H108.373V18.1553H106.322V21.3486C106.322 21.6807 106.396 21.9443 106.542 22.1396C106.698 22.3252 106.928 22.418 107.23 22.418C107.494 22.418 107.719 22.3887 107.904 22.3301C108.1 22.2715 108.28 22.1885 108.446 22.0811V23.5605C108.261 23.7461 108.026 23.9023 107.743 24.0293C107.47 24.1562 107.123 24.2197 106.703 24.2197C106.039 24.2197 105.497 24.0098 105.077 23.5898C104.667 23.1602 104.462 22.5742 104.462 21.832V18.1553H103.129V17.2031C103.598 17.0371 104.027 16.7246 104.418 16.2656C104.818 15.8066 105.136 15.2012 105.37 14.4492H106.322ZM117.426 14.4492V16.6025H119.477V18.1553H117.426V21.3486C117.426 21.6807 117.499 21.9443 117.646 22.1396C117.802 22.3252 118.031 22.418 118.334 22.418C118.598 22.418 118.822 22.3887 119.008 22.3301C119.203 22.2715 119.384 22.1885 119.55 22.0811V23.5605C119.364 23.7461 119.13 23.9023 118.847 24.0293C118.573 24.1562 118.227 24.2197 117.807 24.2197C117.143 24.2197 116.601 24.0098 116.181 23.5898C115.771 23.1602 115.565 22.5742 115.565 21.832V18.1553H114.232V17.2031C114.701 17.0371 115.131 16.7246 115.521 16.2656C115.922 15.8066 116.239 15.2012 116.474 14.4492H117.426ZM124.823 16.4121C125.546 16.4121 126.205 16.5879 126.801 16.9395C127.396 17.2812 127.875 17.75 128.236 18.3457C128.607 18.9316 128.793 19.5908 128.793 20.3232C128.793 21.0557 128.607 21.7148 128.236 22.3008C127.875 22.8867 127.396 23.3555 126.801 23.707C126.205 24.0488 125.546 24.2197 124.823 24.2197C124.11 24.2197 123.451 24.0488 122.846 23.707C122.25 23.3555 121.771 22.8867 121.41 22.3008C121.049 21.7148 120.868 21.0557 120.868 20.3232C120.868 19.5908 121.049 18.9316 121.41 18.3457C121.771 17.75 122.25 17.2812 122.846 16.9395C123.451 16.5879 124.11 16.4121 124.823 16.4121ZM124.823 18.2139C124.472 18.2139 124.145 18.2969 123.842 18.4629C123.539 18.6289 123.295 18.8682 123.109 19.1807C122.934 19.4932 122.846 19.874 122.846 20.3232C122.846 20.7725 122.934 21.1533 123.109 21.4658C123.295 21.7783 123.539 22.0176 123.842 22.1836C124.145 22.3398 124.472 22.418 124.823 22.418C125.175 22.418 125.502 22.3398 125.805 22.1836C126.107 22.0176 126.352 21.7783 126.537 21.4658C126.723 21.1533 126.815 20.7725 126.815 20.3232C126.815 19.874 126.723 19.4932 126.537 19.1807C126.352 18.8682 126.107 18.6289 125.805 18.4629C125.502 18.2969 125.175 18.2139 124.823 18.2139ZM137.875 16.4121C138.275 16.4121 138.681 16.5049 139.091 16.6904C139.501 16.876 139.843 17.125 140.116 17.4375V16.6025H141.977V24H140.116V22.7549C139.901 23.1553 139.589 23.502 139.179 23.7949C138.769 24.0781 138.29 24.2197 137.743 24.2197C137.147 24.2197 136.596 24.0684 136.088 23.7656C135.59 23.4629 135.189 23.0234 134.887 22.4473C134.584 21.8711 134.433 21.1729 134.433 20.3525C134.433 19.5322 134.584 18.8291 134.887 18.2432C135.199 17.6572 135.614 17.208 136.132 16.8955C136.659 16.5732 137.24 16.4121 137.875 16.4121ZM138.256 18.2285C137.865 18.2285 137.528 18.3311 137.245 18.5361C136.972 18.7314 136.757 18.9902 136.601 19.3125C136.444 19.6348 136.366 19.9814 136.366 20.3525C136.366 20.9092 136.532 21.3828 136.864 21.7734C137.206 22.1641 137.655 22.3594 138.212 22.3594C138.544 22.3594 138.852 22.2715 139.135 22.0957C139.428 21.9199 139.662 21.6758 139.838 21.3633C140.023 21.041 140.116 20.6553 140.116 20.2061V19.1514C139.853 18.8682 139.564 18.6436 139.252 18.4775C138.949 18.3115 138.617 18.2285 138.256 18.2285ZM158.939 16.6025L156.376 24H155.028L153.3 19.21L151.571 24H150.209L147.66 16.6025H149.682L151.044 20.9824L152.641 16.6025H153.974L155.556 20.9824L156.918 16.6025H158.939ZM162.865 16.4121C163.266 16.4121 163.671 16.5049 164.081 16.6904C164.491 16.876 164.833 17.125 165.106 17.4375V16.6025H166.967V24H165.106V22.7549C164.892 23.1553 164.579 23.502 164.169 23.7949C163.759 24.0781 163.28 24.2197 162.733 24.2197C162.138 24.2197 161.586 24.0684 161.078 23.7656C160.58 23.4629 160.18 23.0234 159.877 22.4473C159.574 21.8711 159.423 21.1729 159.423 20.3525C159.423 19.5322 159.574 18.8291 159.877 18.2432C160.189 17.6572 160.604 17.208 161.122 16.8955C161.649 16.5732 162.23 16.4121 162.865 16.4121ZM163.246 18.2285C162.855 18.2285 162.519 18.3311 162.235 18.5361C161.962 18.7314 161.747 18.9902 161.591 19.3125C161.435 19.6348 161.356 19.9814 161.356 20.3525C161.356 20.9092 161.522 21.3828 161.854 21.7734C162.196 22.1641 162.646 22.3594 163.202 22.3594C163.534 22.3594 163.842 22.2715 164.125 22.0957C164.418 21.9199 164.652 21.6758 164.828 21.3633C165.014 21.041 165.106 20.6553 165.106 20.2061V19.1514C164.843 18.8682 164.555 18.6436 164.242 18.4775C163.939 18.3115 163.607 18.2285 163.246 18.2285ZM171.112 13.4531V24H169.252V13.4531H171.112ZM175.243 13.4531V24H173.383V13.4531H175.243ZM180.751 16.4121C181.474 16.4121 182.094 16.5684 182.611 16.8809C183.139 17.1934 183.539 17.6279 183.812 18.1846C184.096 18.7314 184.237 19.3662 184.237 20.0889V20.8799H178.876C178.974 21.3779 179.218 21.7783 179.608 22.0811C179.999 22.3838 180.478 22.5352 181.044 22.5352C181.581 22.5352 182.069 22.4277 182.509 22.2129C182.948 21.998 183.3 21.7783 183.563 21.5537L183.549 23.2822C183.314 23.4873 182.963 23.6973 182.494 23.9121C182.035 24.1172 181.527 24.2197 180.971 24.2197C180.238 24.2197 179.569 24.0537 178.964 23.7217C178.368 23.3896 177.89 22.9355 177.528 22.3594C177.177 21.7832 177.001 21.124 177.001 20.3818C177.001 19.6592 177.162 19 177.484 18.4043C177.807 17.8086 178.251 17.3301 178.817 16.9688C179.384 16.5977 180.028 16.4121 180.751 16.4121ZM180.707 18.0381C180.248 18.0381 179.862 18.1797 179.55 18.4629C179.237 18.7461 179.022 19.127 178.905 19.6055H182.45C182.411 19.0781 182.216 18.6875 181.864 18.4336C181.513 18.1699 181.127 18.0381 180.707 18.0381ZM188.617 14.4492V16.6025H190.668V18.1553H188.617V21.3486C188.617 21.6807 188.69 21.9443 188.837 22.1396C188.993 22.3252 189.223 22.418 189.525 22.418C189.789 22.418 190.014 22.3887 190.199 22.3301C190.395 22.2715 190.575 22.1885 190.741 22.0811V23.5605C190.556 23.7461 190.321 23.9023 190.038 24.0293C189.765 24.1562 189.418 24.2197 188.998 24.2197C188.334 24.2197 187.792 24.0098 187.372 23.5898C186.962 23.1602 186.757 22.5742 186.757 21.832V18.1553H185.424V17.2031C185.893 17.0371 186.322 16.7246 186.713 16.2656C187.113 15.8066 187.431 15.2012 187.665 14.4492H188.617Z" fill="white"/>
<defs>
<filter id="filter0_d_420_670" x="0" y="0" width="243" height="46" filterUnits="userSpaceOnUse" color-interpolation-filters="sRGB">
<feFlood flood-opacity="0" result="BackgroundImageFix"/>
<feColorMatrix in="SourceAlpha" type="matrix" values="0 0 0 0 0 0 0 0 0 0 0 0 0 0 0 0 0 0 127 0" result="hardAlpha"/>
<feOffset dy="4"/>
<feGaussianBlur stdDeviation="2"/>
<feComposite in2="hardAlpha" operator="out"/>
<feColorMatrix type="matrix" values="0 0 0 0 0 0 0 0 0 0 0 0 0 0 0 0 0 0 0.25 0"/>
<feBlend mode="normal" in2="BackgroundImageFix" result="effect1_dropShadow_420_670"/>
<feBlend mode="normal" in="SourceGraphic" in2="effect1_dropShadow_420_670" result="shape"/>
</filter>
</defs>
</svg>
