<?xml version="1.0" standalone="no"?>
<!DOCTYPE svg PUBLIC "-//W3C//DTD SVG 1.0//EN" "http://www.w3.org/TR/2001/REC-SVG-20010904/DTD/svg10.dtd">
<svg xmlns="http://www.w3.org/2000/svg" xmlns:xlink="http://www.w3.org/1999/xlink" id="body_1" width="50" height="34">

<g transform="matrix(1.2142857 0 0 1.2142857 0.10714354 -0)">
    <path d="M0.515625 10C 0.515625 4.4771523 4.9927773 0 10.515625 0L10.515625 0L30.406223 0C 35.92907 0 40.406223 4.4771523 40.406223 10L40.406223 10L40.406223 17.5744C 40.406223 23.097248 35.92907 27.5744 30.406223 27.5744L30.406223 27.5744L10.515625 27.5744C 4.9927773 27.5744 0.515625 23.097248 0.515625 17.5744L0.515625 17.5744L0.515625 10z" stroke="none" fill="#102D49" fill-rule="nonzero" fill-opacity="0.49803922" />
	<g>
        <path d="M23.6582 20.7035L27.5325 18.0986L24.6601 18.0779L24.8268 8.20595L22.9119 8.19213L22.7452 18.064L19.8728 18.0433L23.6582 20.7035z" stroke="none" fill="#FFFFFF" fill-rule="nonzero" />
        <path d="M16.2199 7.48565L12.3456 10.0905L15.218 10.1112L15.0513 19.9832L16.9663 19.997L17.1329 10.1251L20.0054 10.1458L16.2199 7.48565z" stroke="none" fill="#FFFFFF" fill-rule="nonzero" />
	</g>
</g>
</svg>