<?xml version="1.0" standalone="no"?>
<!DOCTYPE svg PUBLIC "-//W3C//DTD SVG 1.0//EN" "http://www.w3.org/TR/2001/REC-SVG-20010904/DTD/svg10.dtd">
<svg xmlns="http://www.w3.org/2000/svg" xmlns:xlink="http://www.w3.org/1999/xlink" id="body_1" width="323" height="71">

<g transform="matrix(1.3396227 0 0 1.3396227 0.07546824 -0)">
    <path d="M9.90137 6.229L9.90137 7.05908L7.08887 7.05908L7.08887 9.75439L6.20996 9.75439L6.20996 3.21143L10.4873 3.21143L10.4873 4.0415L7.08887 4.0415L7.08887 6.229L9.90137 6.229zM12.9678 4.87158L12.9678 5.84814C 13.1566 5.52262 13.3844 5.26221 13.6514 5.06689C 13.9183 4.87158 14.1917 4.77393 14.4717 4.77393C 14.6605 4.77393 14.8298 4.80648 14.9795 4.87158L14.9795 4.87158L14.9795 5.79932C 14.7712 5.67562 14.5628 5.61377 14.3545 5.61377C 14.0225 5.61377 13.7523 5.73096 13.5439 5.96533C 13.3421 6.19971 13.1501 6.47965 12.9678 6.80518L12.9678 6.80518L12.9678 9.75439L12.167 9.75439L12.167 4.87158L12.9678 4.87158zM18.2119 4.77393C 18.7067 4.77393 19.1462 4.89111 19.5303 5.12549C 19.9144 5.35986 20.2139 5.67236 20.4287 6.06299C 20.6501 6.45361 20.7607 6.88005 20.7607 7.34229C 20.7607 7.80452 20.6501 8.23096 20.4287 8.62158C 20.2139 9.0057 19.9144 9.31494 19.5303 9.54932C 19.1462 9.78369 18.7067 9.90088 18.2119 9.90088C 17.7171 9.90088 17.2777 9.78369 16.8936 9.54932C 16.5094 9.31494 16.2067 9.0057 15.9854 8.62158C 15.7705 8.23096 15.6631 7.80452 15.6631 7.34229C 15.6631 6.88005 15.7705 6.45361 15.9854 6.06299C 16.2067 5.67236 16.5094 5.35986 16.8936 5.12549C 17.2777 4.89111 17.7171 4.77393 18.2119 4.77393zM18.2119 5.55518C 17.8669 5.55518 17.5641 5.63981 17.3037 5.80908C 17.0433 5.97184 16.8415 6.18994 16.6982 6.46338C 16.5615 6.73031 16.4932 7.02327 16.4932 7.34229C 16.4932 7.65479 16.5615 7.94775 16.6982 8.22119C 16.8415 8.48812 17.0433 8.70622 17.3037 8.87549C 17.5641 9.03825 17.8669 9.11963 18.2119 9.11963C 18.5635 9.11963 18.8662 9.03825 19.1201 8.87549C 19.3805 8.70622 19.5791 8.48812 19.7158 8.22119C 19.859 7.94775 19.9307 7.65479 19.9307 7.34229C 19.9307 7.02327 19.859 6.73031 19.7158 6.46338C 19.5791 6.18994 19.3805 5.97184 19.1201 5.80908C 18.8662 5.63981 18.5635 5.55518 18.2119 5.55518zM22.8799 4.87158L22.8799 5.49658C 23.0361 5.3208 23.2347 5.15804 23.4756 5.0083C 23.723 4.85205 24.0127 4.77393 24.3447 4.77393C 24.6963 4.77393 25.0251 4.85856 25.3311 5.02783C 25.637 5.19059 25.8714 5.43799 26.0342 5.77002C 26.262 5.49658 26.5094 5.26221 26.7764 5.06689C 27.0433 4.87158 27.3558 4.77393 27.7139 4.77393C 28.0459 4.77393 28.3551 4.8488 28.6416 4.99854C 28.9346 5.14176 29.1689 5.36312 29.3447 5.6626C 29.527 5.95557 29.6182 6.32666 29.6182 6.77588L29.6182 6.77588L29.6182 9.75439L28.8174 9.75439L28.8076 6.854C 28.8076 6.43083 28.6969 6.10856 28.4756 5.88721C 28.2607 5.66585 27.9613 5.55518 27.5771 5.55518C 27.2972 5.55518 27.0531 5.64307 26.8447 5.81885C 26.6364 5.99463 26.4378 6.19971 26.249 6.43408L26.249 6.43408L26.249 9.75439L25.4482 9.75439L25.4385 6.854C 25.4385 6.43083 25.3278 6.10856 25.1064 5.88721C 24.8916 5.66585 24.5921 5.55518 24.208 5.55518C 23.9411 5.55518 23.6969 5.6333 23.4756 5.78955C 23.2607 5.9458 23.0622 6.1346 22.8799 6.35596L22.8799 6.35596L22.8799 9.75439L22.0791 9.75439L22.0791 4.87158L22.8799 4.87158zM31.7666 4.65674C 31.9554 4.65674 32.1149 4.7251 32.2451 4.86182C 32.3818 4.99202 32.4502 5.15153 32.4502 5.34033C 32.4502 5.52262 32.3818 5.68213 32.2451 5.81885C 32.1149 5.95557 31.9554 6.02393 31.7666 6.02393C 31.5778 6.02393 31.415 5.95557 31.2783 5.81885C 31.1481 5.68213 31.083 5.52262 31.083 5.34033C 31.083 5.15153 31.1481 4.99202 31.2783 4.86182C 31.415 4.7251 31.5778 4.65674 31.7666 4.65674zM31.7666 8.56299C 31.9554 8.56299 32.1149 8.63135 32.2451 8.76807C 32.3818 8.89827 32.4502 9.05778 32.4502 9.24658C 32.4502 9.42887 32.3818 9.58838 32.2451 9.7251C 32.1149 9.86182 31.9554 9.93018 31.7666 9.93018C 31.5778 9.93018 31.415 9.86182 31.2783 9.7251C 31.1481 9.58838 31.083 9.42887 31.083 9.24658C 31.083 9.05778 31.1481 8.89827 31.2783 8.76807C 31.415 8.63135 31.5778 8.56299 31.7666 8.56299z" stroke="none" fill="#FFFFFF" fill-rule="nonzero" />
    <path d="M0.171875 28.9298C 0.171875 23.406952 4.6490273 18.9298 10.171875 18.9298L10.171875 18.9298L230.43088 18.9298C 235.95372 18.9298 240.43088 23.406952 240.43088 28.9298L240.43088 28.9298L240.43088 42.684196C 240.43088 48.207047 235.95372 52.684196 230.43088 52.684196L230.43088 52.684196L10.171875 52.684196C 4.6490273 52.684196 0.171875 48.207047 0.171875 42.684196L0.171875 42.684196L0.171875 28.9298z" stroke="none" fill="#102D49" fill-rule="nonzero" />
    <path d="M19.6513 40.6911C 18.8313 40.6911 18.1313 40.5511 17.5513 40.2711C 16.9813 39.9811 16.5163 39.5911 16.1563 39.1011C 15.8063 38.6111 15.5513 38.0461 15.3913 37.4061C 15.2313 36.7561 15.1513 36.0711 15.1513 35.3511L15.1513 35.3511L15.1513 34.5411C 15.1513 33.5311 15.3063 32.6211 15.6163 31.8111C 15.9363 31.0011 16.4263 30.3611 17.0863 29.8911C 17.7563 29.4111 18.6113 29.1711 19.6513 29.1711C 20.6913 29.1711 21.5413 29.4111 22.2013 29.8911C 22.8613 30.3611 23.3463 31.0011 23.6563 31.8111C 23.9763 32.6211 24.1363 33.5311 24.1363 34.5411L24.1363 34.5411L24.1363 35.3511C 24.1363 36.0711 24.0563 36.7561 23.8963 37.4061C 23.7363 38.0461 23.4763 38.6111 23.1163 39.1011C 22.7663 39.5911 22.3063 39.9811 21.7363 40.2711C 21.1663 40.5511 20.4713 40.6911 19.6513 40.6911zM19.6513 39.3711C 20.6913 39.3711 21.4513 39.0211 21.9313 38.3211C 22.4213 37.6111 22.6663 36.4911 22.6663 34.9611C 22.6663 33.3611 22.4163 32.2161 21.9163 31.5261C 21.4263 30.8361 20.6713 30.4911 19.6513 30.4911C 18.6213 30.4911 17.8563 30.8361 17.3563 31.5261C 16.8663 32.2161 16.6213 33.3511 16.6213 34.9311C 16.6213 36.4711 16.8663 37.5961 17.3563 38.3061C 17.8463 39.0161 18.6113 39.3711 19.6513 39.3711zM26.3138 40.4211L26.3138 38.5911L28.0538 38.5911L28.0538 40.4211L26.3138 40.4211zM34.7245 40.6911C 33.9045 40.6911 33.2045 40.5511 32.6245 40.2711C 32.0545 39.9811 31.5895 39.5911 31.2295 39.1011C 30.8795 38.6111 30.6245 38.0461 30.4645 37.4061C 30.3045 36.7561 30.2245 36.0711 30.2245 35.3511L30.2245 35.3511L30.2245 34.5411C 30.2245 33.5311 30.3795 32.6211 30.6895 31.8111C 31.0095 31.0011 31.4995 30.3611 32.1595 29.8911C 32.8295 29.4111 33.6845 29.1711 34.7245 29.1711C 35.7645 29.1711 36.6145 29.4111 37.2745 29.8911C 37.9345 30.3611 38.4195 31.0011 38.7295 31.8111C 39.0495 32.6211 39.2095 33.5311 39.2095 34.5411L39.2095 34.5411L39.2095 35.3511C 39.2095 36.0711 39.1295 36.7561 38.9695 37.4061C 38.8095 38.0461 38.5495 38.6111 38.1895 39.1011C 37.8395 39.5911 37.3795 39.9811 36.8095 40.2711C 36.2395 40.5511 35.5445 40.6911 34.7245 40.6911zM34.7245 39.3711C 35.7645 39.3711 36.5245 39.0211 37.0045 38.3211C 37.4945 37.6111 37.7395 36.4911 37.7395 34.9611C 37.7395 33.3611 37.4895 32.2161 36.9895 31.5261C 36.4995 30.8361 35.7445 30.4911 34.7245 30.4911C 33.6945 30.4911 32.9295 30.8361 32.4295 31.5261C 31.9395 32.2161 31.6945 33.3511 31.6945 34.9311C 31.6945 36.4711 31.9395 37.5961 32.4295 38.3061C 32.9195 39.0161 33.6845 39.3711 34.7245 39.3711z" stroke="none" fill="#758492" fill-rule="nonzero" />
    <path d="M160.789 34.7109L164.246 34.7109L164.246 37.9336C 164.059 38.1367 163.816 38.3359 163.52 38.5312C 163.223 38.7188 162.879 38.875 162.488 39C 162.105 39.1172 161.684 39.1758 161.223 39.1758C 160.629 39.1758 160.082 39.0703 159.582 38.8594C 159.082 38.6406 158.645 38.3438 158.27 37.9688C 157.895 37.5938 157.602 37.1602 157.391 36.668C 157.188 36.168 157.086 35.6367 157.086 35.0742C 157.086 34.5117 157.188 33.9844 157.391 33.4922C 157.602 32.9922 157.895 32.5547 158.27 32.1797C 158.645 31.8047 159.082 31.5117 159.582 31.3008C 160.082 31.082 160.629 30.9727 161.223 30.9727C 161.793 30.9727 162.258 31.0508 162.617 31.207C 162.984 31.3633 163.305 31.5664 163.578 31.8164L163.578 31.8164L163.578 32.9766C 163.406 32.8516 163.211 32.7148 162.992 32.5664C 162.781 32.418 162.531 32.2891 162.242 32.1797C 161.961 32.0625 161.621 32.0039 161.223 32.0039C 160.637 32.0039 160.113 32.1367 159.652 32.4023C 159.191 32.668 158.828 33.0352 158.562 33.5039C 158.297 33.9648 158.164 34.4883 158.164 35.0742C 158.164 35.6602 158.297 36.1836 158.562 36.6445C 158.828 37.1055 159.191 37.4727 159.652 37.7461C 160.113 38.0117 160.637 38.1445 161.223 38.1445C 161.621 38.1445 161.941 38.1055 162.184 38.0273C 162.426 37.9414 162.617 37.8477 162.758 37.7461C 162.898 37.6367 163.012 37.5469 163.098 37.4766L163.098 37.4766L163.109 35.6484L160.789 35.6484L160.789 34.7109zM167.059 31.1484L167.059 38.0039L171.383 38.0039L171.383 39L166.004 39L166.004 31.1484L167.059 31.1484zM180.758 31.1484L180.758 39L179.703 39L179.703 33.3164L177.277 35.9062L176.996 35.9062L174.512 33.3164L174.512 39L173.457 39L173.457 31.1484L173.785 31.1484L177.137 34.7461L180.43 31.1484L180.758 31.1484zM186.348 31.1484C 186.801 31.1484 187.234 31.2344 187.648 31.4062C 188.062 31.5703 188.402 31.8281 188.668 32.1797C 188.941 32.5234 189.078 32.9648 189.078 33.5039C 189.078 33.9883 188.938 34.3984 188.656 34.7344C 188.383 35.0703 188.031 35.3242 187.602 35.4961C 187.18 35.6602 186.742 35.7422 186.289 35.7422C 186.148 35.7422 185.961 35.7344 185.727 35.7188L185.727 35.7188L189.383 39L187.766 39L184.391 35.7188L184.391 39L183.336 39L183.336 31.1484L186.348 31.1484zM184.391 32.1445L184.391 34.6641C 184.648 34.7344 184.93 34.7891 185.234 34.8281C 185.539 34.8672 185.84 34.8867 186.137 34.8867C 186.73 34.8867 187.188 34.7617 187.508 34.5117C 187.836 34.2617 188 33.9258 188 33.5039C 188 33.0664 187.82 32.7305 187.461 32.4961C 187.109 32.2617 186.68 32.1445 186.172 32.1445L186.172 32.1445L184.391 32.1445z" stroke="none" fill="#FFFFFF" fill-rule="nonzero" />
    <path d="M121.794 30.614L121.794 40.3509" stroke="#758492" stroke-width="1" fill="none" />
    <path d="M129.547 24.5938L152.18759 24.5938L152.18759 43.9502L129.547 43.9502z" stroke="none" fill="none" />
</g>
</svg>