<?xml version="1.0" encoding="UTF-8"?>
<svg xmlns="http://www.w3.org/2000/svg" xmlns:xlink="http://www.w3.org/1999/xlink" width="800px" height="317px" viewBox="0 0 799 317" version="1.1">
<g id="surface1">
<path style=" stroke:none;fill-rule:nonzero;fill:rgb(15.686275%,22.352941%,29.019608%);fill-opacity:1;" d="M 38.964844 131.324219 L 16.816406 125.921875 L 16.816406 316.8125 L 798.46875 316.8125 L 798.46875 41.730469 L 771.980469 54.335938 L 749.394531 41.730469 L 705.539062 41.730469 L 685.996094 72.34375 L 672.53125 41.730469 L 665.152344 46.683594 L 655.160156 65.140625 L 645.175781 65.140625 C 644.742188 72.492188 641.53125 87.828125 632.152344 90.351562 C 622.769531 92.875 605.949219 95.304688 598.714844 96.203125 L 580.039062 65.140625 L 573.523438 87.199219 L 565.277344 101.15625 L 529.234375 75.496094 L 523.152344 50.285156 C 520.832031 54.039062 514.988281 63.699219 510.125 72.34375 C 504.042969 83.148438 500.136719 75.046875 494.058594 72.34375 C 489.199219 70.183594 479.003906 30.324219 474.515625 10.664062 L 462.792969 61.535156 L 452.371094 65.140625 L 445.421875 154.285156 L 432.832031 131.324219 L 402.867188 211.464844 L 387.667969 200.207031 L 371.164062 211.464844 L 366.824219 200.207031 L 355.964844 200.207031 L 338.164062 219.117188 L 325.570312 211.464844 L 316.015625 225.867188 L 304.726562 208.3125 C 302.410156 216.867188 297.515625 235.328125 296.472656 240.726562 C 295.171875 247.480469 277.367188 263.6875 253.917969 274.488281 C 235.160156 283.136719 217.148438 278.09375 210.496094 274.488281 L 203.109375 247.480469 L 173.582031 247.480469 L 157.945312 215.0625 L 140.578125 240.726562 L 100.625 222.265625 L 94.984375 194.804688 L 38.964844 144.378906 Z M 38.964844 131.324219 "/>
<path style="fill:none;stroke-width:5;stroke-linecap:butt;stroke-linejoin:miter;stroke:rgb(0%,76.078431%,100%);stroke-opacity:1;stroke-miterlimit:4;" d="M 13.999446 108.550516 L 33.040886 113.214907 L 33.040886 124.496694 L 81.20196 168.046671 L 86.051314 191.771309 L 120.399789 207.71413 L 135.330695 185.546527 L 148.773885 213.542942 L 174.159113 213.542942 L 180.509618 236.87832 C 186.228767 239.989033 201.713789 244.344702 217.840244 236.87832 C 237.99999 227.546182 253.307024 213.542942 254.425331 207.71413 C 255.321992 203.043028 259.529915 187.103562 261.521374 179.714361 L 271.226799 194.882021 L 279.441149 182.435815 L 290.268239 189.046499 L 305.571915 172.714418 L 314.90793 172.714418 L 318.638977 182.435815 L 332.827705 172.714418 L 345.894767 182.435815 L 371.656122 113.214907 L 382.479854 133.050315 L 388.454232 56.054303 L 397.41412 52.94359 L 407.492314 9.000999 C 411.350976 25.980725 420.116083 60.406616 424.293782 62.279084 C 429.519263 64.607924 432.877542 71.611222 438.106382 62.279084 C 442.287439 54.809347 447.314782 46.460422 449.3096 43.218838 L 454.535081 64.997183 L 485.521918 87.16143 L 492.614603 75.111193 L 498.212853 56.054303 L 514.268783 82.882942 C 520.488316 82.104425 534.949063 80.007126 543.015649 77.829292 C 551.078876 75.651458 553.839381 62.403244 554.21215 56.054303 L 562.79591 56.054303 L 571.386387 40.111481 L 577.733533 35.832993 L 589.306162 62.279084 L 606.10763 35.832993 L 643.811024 35.832993 L 663.228591 46.722165 L 686.001079 35.832993 " transform="matrix(1.16317,0,0,1.164072,0.532666,0.186251)"/>
</g>
</svg>
