<svg width="686" height="272" viewBox="0 0 686 272" fill="none" xmlns="http://www.w3.org/2000/svg">
<g clip-path="url(#clip0_387_487)">
<path d="M33.04 112.653L14 108.012V272H686V35.6868L663.227 46.5162L643.813 35.6868H606.107L589.307 61.9868L577.733 35.6868L571.387 39.9412L562.8 55.7985H554.213C553.84 62.1157 551.077 75.2915 543.013 77.4574C534.949 79.6232 520.489 81.7118 514.267 82.4853L498.213 55.7985L492.613 74.75L485.52 86.7397L454.533 64.6941L449.307 43.0353C447.316 46.2583 442.288 54.5609 438.107 61.9868C432.88 71.2691 429.52 64.3074 424.293 61.9868C420.112 60.1303 411.351 25.8887 407.493 9L397.413 52.7044L388.453 55.7985L382.48 132.378L371.653 112.653L345.893 181.497L332.827 171.828L318.64 181.497L314.907 171.828H305.573L290.267 188.072L279.44 181.497L271.227 193.874L261.52 178.79C259.529 186.138 255.323 201.996 254.427 206.637C253.307 212.438 238 226.362 217.84 235.644C201.712 243.07 186.231 238.738 180.507 235.644L174.16 212.438H148.773L135.333 184.591L120.4 206.637L86.0533 190.779L81.2 167.187L33.04 123.869V112.653Z" fill="#28394A"/>
<path d="M14 108.551L33.04 113.217V124.494L81.2 168.048L86.0533 191.769L120.4 207.712L135.333 185.547L148.773 213.545H174.16L180.507 236.877C186.231 239.988 201.712 244.344 217.84 236.877C238 227.545 253.307 213.545 254.427 207.712C255.323 203.046 259.529 187.102 261.52 179.714L271.227 194.88L279.44 182.436L290.267 189.047L305.573 172.714H314.907L318.64 182.436L332.827 172.714L345.893 182.436L371.653 113.217L382.48 133.049L388.453 56.0532L397.413 52.9422L407.493 9C411.351 25.9806 420.112 60.4085 424.293 62.2751C429.52 64.6083 432.88 71.608 438.107 62.2751C442.288 54.8088 447.316 46.4611 449.307 43.2205L454.533 64.9972L485.52 87.1628L492.613 75.1078L498.213 56.0532L514.267 82.8852C520.489 82.1074 534.949 80.0076 543.013 77.8299C551.077 75.6522 553.84 62.4047 554.213 56.0532H562.8L571.387 40.1096L577.733 35.832L589.307 62.2751L606.107 35.832H643.813L663.227 46.7203L686 35.832" stroke="#00C2FF" stroke-width="5"/>
</g>
<defs>
<clipPath id="clip0_387_487">
<rect width="686" height="272" fill="white"/>
</clipPath>
</defs>
</svg>
