<svg width="277" height="109" viewBox="0 0 277 109" fill="none" xmlns="http://www.w3.org/2000/svg">
<path d="M8.8061 43.4961L1 41.5933V108.826H276.509V11.9412L267.173 16.381L259.214 11.9412H243.754L236.867 22.7237L232.122 11.9412L229.52 13.6854L225.999 20.1867H222.479C222.326 22.7766 221.193 28.1785 217.887 29.0664C214.581 29.9544 208.653 30.8107 206.102 31.1278L199.52 20.1867L197.224 27.9565L194.316 32.8721L181.612 23.8337L179.469 14.9539C178.653 16.2753 176.591 19.6793 174.877 22.7237C172.734 26.5294 171.357 23.6751 169.214 22.7237C167.5 21.9626 163.908 7.92411 162.326 1L158.193 18.9181L154.52 20.1867L152.071 51.583L147.632 43.4961L137.071 71.7211L131.714 67.7569L125.898 71.7211L124.367 67.7569H120.541L114.265 74.4167L109.826 71.7211L106.459 76.7953L102.479 70.6111C101.663 73.6239 99.9385 80.1252 99.5712 82.028C99.112 84.4065 92.8365 90.1149 84.5712 93.9205C77.959 96.965 71.6121 95.1891 69.2651 93.9205L66.6631 84.4065H56.255L50.7448 72.9896L44.6223 82.028L30.5407 75.5267L28.5509 65.8541L8.8061 48.0945V43.4961Z" fill="#28394A"/>
<path d="M1 41.8142L8.8061 43.7273V48.3508L28.5509 66.207L30.5407 75.9323L44.6223 82.4689L50.7448 73.3814L56.255 84.8604H66.6631L69.2651 94.4262C71.6121 95.7017 77.959 97.4873 84.5712 94.4262C92.8365 90.5999 99.112 84.8604 99.5712 82.4689C99.9385 80.5558 101.663 74.0191 102.479 70.9899L106.459 77.2077L109.826 72.106L114.265 74.8163L120.541 68.1202H124.367L125.898 72.106L131.714 68.1202L137.071 72.106L147.632 43.7273L152.071 51.8583L154.52 20.2911L158.193 19.0156L162.326 1C163.908 7.96179 167.5 22.0767 169.214 22.842C171.357 23.7985 172.734 26.6683 174.877 22.842C176.591 19.7809 178.653 16.3585 179.469 15.0299L181.612 23.958L194.316 33.0455L197.224 28.1032L199.52 20.2911L206.102 31.2918C208.653 30.9729 214.581 30.112 217.887 29.2192C221.193 28.3264 222.326 22.8951 222.479 20.2911H225.999L229.52 13.7544L232.122 12.0007L236.867 22.842L243.754 12.0007H259.214L267.173 16.4647L276.509 12.0007" stroke="#00C2FF"/>
</svg>
