<svg width="31" height="28" viewBox="0 0 31 28" fill="none" xmlns="http://www.w3.org/2000/svg">
<g clip-path="url(#clip0_418_530)">
<path d="M15.4156 0C15.5882 0.329161 15.7567 0.63382 15.9113 0.945895C16.9807 3.10592 18.2337 5.15568 19.5344 7.17997C20.1671 8.16391 20.7952 9.15269 21.2912 10.2163C22.4683 12.7386 22.4186 15.2517 21.1144 17.6977C20.111 19.5798 18.4708 20.615 16.3719 20.9138C14.5735 21.1698 12.9224 20.782 11.4651 19.6804C10.1918 18.7177 9.3978 17.4291 9.01062 15.8887C8.60669 14.2803 8.6563 12.6867 9.21001 11.1154C9.507 10.274 9.9483 9.5057 10.4202 8.75614C12.0179 6.21957 13.44 3.58306 14.8886 0.961373C15.0596 0.651555 15.2287 0.340768 15.4156 0ZM15.4362 8.30609C15.4001 8.35735 15.3717 8.38927 15.3527 8.42473C14.7121 9.53633 14.0694 10.6473 13.4365 11.7634C13.3874 11.8614 13.3759 11.9741 13.4043 12.08C13.7934 13.3418 14.1935 14.6005 14.5887 15.8607C14.6209 15.9616 14.6737 16.0096 14.7852 16.0083C15.193 16.0041 15.6014 15.9977 16.0092 16.0119C16.1751 16.0174 16.2392 15.9593 16.2862 15.8062C16.67 14.565 17.059 13.3255 17.4533 12.0877C17.474 12.0301 17.4814 11.9685 17.4747 11.9076C17.4681 11.8467 17.4476 11.7881 17.4149 11.7363C16.9595 10.9521 16.5062 10.1661 16.0553 9.37836C15.8536 9.02631 15.6494 8.6749 15.4362 8.30609ZM15.6249 5.21855L15.5843 5.23306V5.38942C15.5843 6.16799 15.5785 6.94656 15.5895 7.72514C15.5927 7.87377 15.6317 8.01944 15.7032 8.14973C16.2601 9.13528 16.828 10.1163 17.3933 11.0954C17.4661 11.2218 17.5434 11.3453 17.6327 11.4932C17.661 11.4201 17.6784 11.3811 17.691 11.3411C17.8994 10.6811 18.1033 10.0193 18.3181 9.36192C18.3687 9.20653 18.3407 9.08821 18.2495 8.95893C17.5512 7.96768 16.8554 6.9744 16.1622 5.97907C15.9841 5.7247 15.804 5.47291 15.624 5.21855H15.6249ZM15.258 5.19985C15.2168 5.24724 15.1936 5.26884 15.1769 5.29334C14.3123 6.53004 13.4473 7.76587 12.5819 9.00084C12.5001 9.1169 12.5004 9.22361 12.5404 9.3487C12.6976 9.83938 12.8506 10.3317 13.0058 10.823C13.0731 11.0361 13.1417 11.2486 13.2174 11.4852C13.2561 11.4313 13.2819 11.3998 13.3028 11.3646C13.9367 10.2685 14.5696 9.17074 15.2013 8.07139C15.241 8.0026 15.2631 7.92509 15.2658 7.84571C15.2712 7.00234 15.2709 6.15864 15.2712 5.31494C15.2696 5.28851 15.2651 5.26239 15.258 5.19985ZM14.3184 15.9951L13.1382 12.2612L10.9855 15.9951H14.3184ZM19.8714 15.9835C19.1521 14.7381 18.4447 13.5137 17.718 12.2551L16.542 15.9829L19.8714 15.9835ZM15.6971 18.6729L19.5235 16.3565L19.5138 16.3149C19.4642 16.3117 19.4146 16.3062 19.365 16.3062C18.4745 16.3062 17.5839 16.3062 16.6934 16.3062C16.4615 16.3062 16.4357 16.3252 16.3629 16.5509C16.1859 17.1084 16.0103 17.6662 15.8359 18.2241C15.7931 18.3599 15.7528 18.4975 15.6971 18.6729ZM11.3443 16.3194L11.3344 16.3517L15.1508 18.6648C15.1302 18.5817 15.1211 18.5359 15.1073 18.4914C14.8982 17.8253 14.685 17.1609 14.4817 16.4926C14.4379 16.3481 14.3642 16.2991 14.2166 16.2991C13.3041 16.3056 12.3915 16.304 11.4787 16.3056C11.4342 16.3095 11.3891 16.3162 11.3443 16.3194ZM18.543 9.7749L18.5108 9.77716C18.494 9.82068 18.475 9.86356 18.4608 9.90805C18.2756 10.4967 18.0939 11.0867 17.9039 11.6738C17.8582 11.8143 17.8778 11.9291 17.9506 12.0545C18.4415 12.8992 18.9266 13.7471 19.414 14.5934C19.5106 14.7639 19.6117 14.9335 19.711 15.1034L19.7474 15.0879C19.3454 13.3167 18.9439 11.5457 18.543 9.7749ZM11.116 15.0779L11.1446 15.0895C11.1617 15.0653 11.181 15.0421 11.1959 15.0167C11.7757 14.0131 12.3555 13.0107 12.9272 12.0026C12.973 11.9217 12.9784 11.7918 12.9514 11.6996C12.7787 11.1131 12.5919 10.5309 12.4089 9.94738C12.3928 9.8958 12.3693 9.84647 12.3493 9.79618L12.312 9.80263C11.9132 11.561 11.5145 13.3194 11.116 15.0779ZM16.1165 16.3272H14.7407C14.9662 17.1145 15.1878 17.8853 15.4088 18.6561L15.4516 18.6503L16.1165 16.3272Z" fill="white"/>
<path d="M13.6215 22.0622V23.1077C13.6215 23.8009 13.6195 24.494 13.6215 25.1868C13.6215 25.5257 13.8128 25.7813 14.123 25.8774C14.4432 25.9764 14.8094 25.8664 14.9708 25.584C15.0488 25.4387 15.09 25.2764 15.0906 25.1114C15.1016 24.1603 15.0961 23.2093 15.0961 22.2582V22.0596H16.4219V25.1955C16.4219 26.2488 15.6682 27.0773 14.6181 27.1663C13.8173 27.234 13.1312 27.0051 12.6368 26.3368C12.4182 26.0465 12.2994 25.6932 12.2982 25.3296C12.2924 24.2712 12.296 23.2125 12.2963 22.1541C12.2963 22.1277 12.3014 22.1012 12.3053 22.0625L13.6215 22.0622Z" fill="white"/>
<path d="M17.3937 22.0583H20.5994V23.2834H18.6989V23.9736H20.2573V25.0743C20.2016 25.0772 20.1452 25.0823 20.0885 25.0823C19.6698 25.0823 19.251 25.0862 18.8323 25.0804C18.7192 25.0804 18.6812 25.1127 18.686 25.2271C18.6938 25.4083 18.688 25.5898 18.688 25.7874H20.5968V27.026H17.3921L17.3937 22.0583Z" fill="white"/>
<path d="M28.0758 25.3967C28.4192 25.7974 28.8167 25.9512 29.295 25.8822C29.348 25.8746 29.3999 25.8604 29.4493 25.84C29.6916 25.7403 29.7392 25.5447 29.5328 25.3854C29.344 25.239 29.1256 25.1291 28.914 25.0153C28.6924 24.896 28.4537 24.8061 28.2375 24.6768C27.746 24.3818 27.4561 23.9595 27.5015 23.3624C27.5447 22.7972 27.8684 22.4197 28.3593 22.1853C28.9613 21.8981 29.574 21.9042 30.1783 22.1889C30.427 22.3059 30.6292 22.4823 30.7545 22.7308C30.7752 22.7711 30.7745 22.8546 30.7471 22.8823C30.5217 23.1112 30.2881 23.3318 30.0475 23.5636C29.9631 23.4535 29.8552 23.3637 29.7316 23.3008C29.608 23.238 29.472 23.2036 29.3334 23.2002C29.2163 23.1924 29.0991 23.2146 28.9929 23.2647C28.9153 23.3047 28.8335 23.4095 28.8267 23.4904C28.8206 23.5613 28.9004 23.6729 28.972 23.7109C29.1697 23.8166 29.3907 23.8795 29.5882 23.9849C29.899 24.15 30.235 24.2944 30.4968 24.5211C31.2461 25.17 31.1411 26.2862 30.2859 26.7862C29.4484 27.2762 28.5951 27.2179 27.7656 26.7304C27.7111 26.6959 27.6598 26.6564 27.6126 26.6124C27.2519 26.2939 27.2525 26.2436 27.5859 25.9125C27.7502 25.7484 27.9045 25.5769 28.0758 25.3967Z" fill="white"/>
<path d="M1.30184 25.7926H3.20232V27.0238H0.00146484V22.059H1.30345L1.30184 25.7926Z" fill="white"/>
<path d="M3.92871 27.0248V22.0599H5.22941V27.0248H3.92871Z" fill="white"/>
<path d="M15.4365 8.30609C15.6497 8.67491 15.8553 9.02631 16.0569 9.37836C16.5098 10.1646 16.963 10.9506 17.4165 11.7363C17.4492 11.7881 17.4697 11.8467 17.4763 11.9076C17.483 11.9685 17.4756 12.0301 17.4549 12.0877C17.0623 13.3259 16.6733 14.5654 16.2879 15.8062C16.2408 15.9593 16.1767 16.0174 16.0108 16.0119C15.6034 15.9977 15.1949 16.0041 14.7868 16.0083C14.6753 16.0083 14.6219 15.9616 14.5903 15.8607C14.1951 14.6005 13.795 13.3418 13.4059 12.08C13.3775 11.9741 13.389 11.8614 13.4381 11.7634C14.0711 10.6473 14.7137 9.53634 15.3544 8.42473C15.3737 8.38927 15.4004 8.35735 15.4365 8.30609Z" fill="#052C39"/>
<path d="M15.6242 5.21854C15.8032 5.47194 15.9833 5.72469 16.1614 5.97906C16.857 6.97224 17.5528 7.96552 18.2487 8.95892C18.3399 9.08788 18.3679 9.20652 18.3174 9.36191C18.1025 10.0196 17.8986 10.6811 17.6902 11.3411C17.6776 11.381 17.6602 11.4201 17.6319 11.4932C17.5427 11.3453 17.4654 11.2218 17.3926 11.0954C16.8272 10.1147 16.2594 9.13527 15.7024 8.14972C15.6309 8.01943 15.5919 7.87376 15.5887 7.72513C15.5778 6.94655 15.5836 6.16798 15.5836 5.38941V5.23305L15.6242 5.21854Z" fill="#052C39"/>
<path d="M15.2582 5.19986C15.2653 5.2624 15.2711 5.28852 15.2708 5.31463C15.2708 6.15833 15.2708 7.00202 15.2653 7.8454C15.2627 7.92478 15.2405 8.00229 15.2009 8.07107C14.5704 9.17 13.9375 10.2677 13.3023 11.3643C13.282 11.3994 13.2556 11.431 13.217 11.4849C13.1413 11.2482 13.0727 11.0358 13.0053 10.8227C12.8501 10.3314 12.6971 9.83907 12.5399 9.34839C12.4999 9.2233 12.4996 9.11659 12.5814 9.00053C13.4488 7.7662 14.3138 6.53037 15.1764 5.29303C15.1944 5.26885 15.217 5.24725 15.2582 5.19986Z" fill="#052C39"/>
<path d="M14.3188 15.9951H10.9858L13.1395 12.2612L14.3188 15.9951Z" fill="#052C39"/>
<path d="M19.8714 15.9829H16.542L17.7177 12.2551C18.4447 13.5137 19.1521 14.7381 19.8714 15.9829Z" fill="#052C39"/>
<path d="M15.6973 18.6729C15.7517 18.4966 15.7939 18.3599 15.8361 18.2238C16.0113 17.665 16.187 17.1073 16.3631 16.5506C16.4349 16.3249 16.4616 16.3059 16.6936 16.3059C17.5839 16.3059 18.4744 16.3059 19.3652 16.3059C19.4148 16.3059 19.4644 16.3114 19.514 16.3146L19.5237 16.3562L15.6973 18.6729Z" fill="#052C39"/>
<path d="M11.3443 16.3194C11.3891 16.3162 11.4342 16.3095 11.4793 16.3095C12.3915 16.3078 13.3041 16.3095 14.2172 16.303C14.3648 16.303 14.4385 16.3504 14.4823 16.4964C14.6856 17.1638 14.8988 17.8282 15.1079 18.4953C15.1217 18.5394 15.1308 18.5855 15.1514 18.6687L11.335 16.3556L11.3443 16.3194Z" fill="#052C39"/>
<path d="M18.5432 9.7749C18.9443 11.5457 19.3452 13.3167 19.7459 15.0879L19.7095 15.1034C19.6103 14.9335 19.5105 14.7639 19.4126 14.5934C18.9252 13.7471 18.4401 12.8992 17.9492 12.0545C17.8764 11.9291 17.8567 11.8144 17.9025 11.6738C18.0925 11.0867 18.2742 10.4967 18.4594 9.90805C18.4736 9.86356 18.4916 9.82068 18.5093 9.77716L18.5432 9.7749Z" fill="#052C39"/>
<path d="M11.1162 15.0779C11.515 13.3196 11.9137 11.5612 12.3122 9.80262L12.3496 9.79617C12.3696 9.84647 12.3931 9.89579 12.4092 9.94738C12.5921 10.5309 12.779 11.1131 12.9516 11.6996C12.9787 11.7918 12.9732 11.9217 12.9275 12.0026C12.3564 13.0107 11.7749 14.0131 11.1961 15.0167C11.1813 15.0421 11.1619 15.0653 11.1449 15.0895L11.1162 15.0779Z" fill="#052C39"/>
<path d="M16.1165 16.3272L15.4516 18.6503L15.4088 18.6561C15.1878 17.8853 14.9665 17.1145 14.7407 16.3272H16.1165Z" fill="#052C39"/>
<path fill-rule="evenodd" clip-rule="evenodd" d="M10.6026 26.7269C10.5384 26.7163 10.471 26.7051 10.3984 26.6937C10.4157 26.6792 10.4309 26.6664 10.4445 26.6549C10.4877 26.6185 10.5155 26.5951 10.5444 26.5728C11.6891 25.6585 11.8447 23.9311 10.8694 22.8392C10.218 22.1099 9.38119 21.8626 8.42773 21.9468C6.68702 22.1002 5.57476 23.8882 6.21255 25.5095C6.63903 26.5928 7.75194 27.2563 8.98854 27.1595C9.03775 27.153 9.08779 27.1578 9.13489 27.1735C9.18199 27.1892 9.2249 27.2154 9.2604 27.2501C9.73777 27.6812 10.3018 27.9188 10.938 27.9971C11.0446 28.009 11.0894 27.9791 11.1248 27.8801C11.2001 27.6692 11.2811 27.4602 11.3621 27.2512C11.4013 27.15 11.4406 27.0488 11.4791 26.9474C11.4913 26.9085 11.5011 26.8689 11.5084 26.8288C11.4713 26.8259 11.4348 26.8232 11.3986 26.8206C11.249 26.8096 11.1069 26.7991 10.966 26.782C10.8489 26.7678 10.7326 26.7485 10.6026 26.7269ZM8.77497 25.9016C8.81623 25.9014 8.857 25.8995 8.89724 25.8961C9.61819 25.8346 10.165 25.2654 10.1665 24.5485C10.1665 24.545 10.1665 24.5415 10.1665 24.538C10.1634 23.7772 9.55124 23.1864 8.76757 23.1873C7.9826 23.1883 7.3723 23.7876 7.37599 24.5492C7.376 24.5515 7.37601 24.5537 7.37603 24.5559C7.38177 25.1991 7.82591 25.7227 8.43558 25.8639C8.54399 25.8891 8.65763 25.9021 8.77497 25.9016Z" fill="white"/>
<path fill-rule="evenodd" clip-rule="evenodd" d="M26.6091 23.7048C26.247 22.6264 25.2269 21.9281 24.0103 21.9078C23.9335 21.919 23.8562 21.928 23.7788 21.937C23.6108 21.9567 23.4426 21.9763 23.2794 22.018C21.1657 22.5629 20.7347 24.9731 21.9265 26.2768C22.5987 27.0103 23.4549 27.2508 24.4251 27.1392C26.0956 26.9471 27.1441 25.2984 26.6091 23.7048ZM23.9974 23.1884C24.0035 23.1883 24.0096 23.1883 24.0157 23.1883C24.1038 23.1886 24.1897 23.1964 24.2728 23.2112C24.9272 23.3274 25.4089 23.8727 25.4079 24.5433C25.4079 24.5465 25.4079 24.5497 25.4079 24.553C25.4021 25.3087 24.794 25.897 24.0141 25.9016C23.6865 25.9035 23.3869 25.7982 23.1497 25.6191C22.856 25.3979 22.658 25.0635 22.6208 24.6781C22.6167 24.6355 22.6146 24.5923 22.6145 24.5485C22.6145 24.5465 22.6145 24.5444 22.6145 24.5424C22.6164 23.7859 23.2215 23.195 23.9974 23.1884Z" fill="white"/>
</g>
<defs>
<clipPath id="clip0_418_530">
<rect width="31" height="28" fill="white"/>
</clipPath>
</defs>
</svg>
