<?xml version="1.0" standalone="no"?>
<!DOCTYPE svg PUBLIC "-//W3C//DTD SVG 1.0//EN" "http://www.w3.org/TR/2001/REC-SVG-20010904/DTD/svg10.dtd">
<svg xmlns="http://www.w3.org/2000/svg" xmlns:xlink="http://www.w3.org/1999/xlink" id="body_1" width="323" height="70">

<g transform="matrix(1.340249 0 0 1.340249 -0 0.15352759)">
    <path d="M10.8193 2.52734L10.8193 3.35742L8.56348 3.35742L8.56348 9.04102L7.68457 9.04102L7.68457 3.35742L5.42871 3.35742L5.42871 2.52734L10.8193 2.52734zM14.1396 4.08984C 14.6344 4.08984 15.0739 4.20703 15.458 4.44141C 15.8421 4.67578 16.1416 4.98828 16.3564 5.37891C 16.5778 5.76953 16.6885 6.19596 16.6885 6.6582C 16.6885 7.12044 16.5778 7.54688 16.3564 7.9375C 16.1416 8.32161 15.8421 8.63086 15.458 8.86523C 15.0739 9.09961 14.6344 9.2168 14.1396 9.2168C 13.6449 9.2168 13.2054 9.09961 12.8213 8.86523C 12.4372 8.63086 12.1344 8.32161 11.9131 7.9375C 11.6982 7.54688 11.5908 7.12044 11.5908 6.6582C 11.5908 6.19596 11.6982 5.76953 11.9131 5.37891C 12.1344 4.98828 12.4372 4.67578 12.8213 4.44141C 13.2054 4.20703 13.6449 4.08984 14.1396 4.08984zM14.1396 4.87109C 13.7946 4.87109 13.4919 4.95573 13.2314 5.125C 12.971 5.28776 12.7692 5.50586 12.626 5.7793C 12.4893 6.04622 12.4209 6.33919 12.4209 6.6582C 12.4209 6.9707 12.4893 7.26367 12.626 7.53711C 12.7692 7.80404 12.971 8.02214 13.2314 8.19141C 13.4919 8.35417 13.7946 8.43555 14.1396 8.43555C 14.4912 8.43555 14.7939 8.35417 15.0479 8.19141C 15.3083 8.02214 15.5068 7.80404 15.6436 7.53711C 15.7868 7.26367 15.8584 6.9707 15.8584 6.6582C 15.8584 6.33919 15.7868 6.04622 15.6436 5.7793C 15.5068 5.50586 15.3083 5.28776 15.0479 5.125C 14.7939 4.95573 14.4912 4.87109 14.1396 4.87109zM23.2607 2.33203C 23.0654 2.55339 22.8766 2.83333 22.6943 3.17188C 22.5186 3.51042 22.3623 3.88151 22.2256 4.28516C 22.0889 4.6888 21.9814 5.09896 21.9033 5.51562C 21.8252 5.92578 21.7861 6.31315 21.7861 6.67773C 21.7861 7.06836 21.8252 7.47201 21.9033 7.88867C 21.9814 8.30534 22.0889 8.70898 22.2256 9.09961C 22.3623 9.49674 22.5186 9.86133 22.6943 10.1934C 22.8766 10.5254 23.0654 10.8021 23.2607 11.0234L23.2607 11.0234L22.3721 11.0234C 22.1051 10.7435 21.8512 10.3757 21.6104 9.91992C 21.3695 9.4707 21.1709 8.96615 21.0146 8.40625C 20.8649 7.84635 20.79 7.27018 20.79 6.67773C 20.79 6.25456 20.8324 5.83138 20.917 5.4082C 21.0081 4.98503 21.1286 4.57812 21.2783 4.1875C 21.4281 3.79688 21.5973 3.44206 21.7861 3.12305C 21.9749 2.80404 22.1702 2.54036 22.3721 2.33203L22.3721 2.33203L23.2607 2.33203zM26.4932 4.08984C 26.9945 4.08984 27.4111 4.19401 27.7432 4.40234C 28.0752 4.61068 28.3226 4.89388 28.4854 5.25195C 28.6546 5.61003 28.7393 6.01367 28.7393 6.46289L28.7393 6.46289L28.7393 6.94141L24.9893 6.94141C 25.0283 7.21484 25.1227 7.46549 25.2725 7.69336C 25.4222 7.92122 25.6175 8.10352 25.8584 8.24023C 26.0993 8.37044 26.376 8.43555 26.6885 8.43555C 27.04 8.43555 27.3688 8.34766 27.6748 8.17188C 27.9808 7.98958 28.238 7.79102 28.4463 7.57617L28.4463 7.57617L28.4365 8.44531C 28.3454 8.55599 28.2087 8.67318 28.0264 8.79688C 27.8506 8.91406 27.6455 9.01172 27.4111 9.08984C 27.1833 9.17448 26.9424 9.2168 26.6885 9.2168C 26.1937 9.2168 25.7542 9.09961 25.3701 8.86523C 24.986 8.63086 24.6833 8.32161 24.4619 7.9375C 24.2471 7.54688 24.1396 7.12044 24.1396 6.6582C 24.1396 6.19596 24.2406 5.76953 24.4424 5.37891C 24.6442 4.98828 24.9209 4.67578 25.2725 4.44141C 25.6305 4.20703 26.0374 4.08984 26.4932 4.08984zM26.4932 4.87109C 26.0895 4.87109 25.7575 5.00781 25.4971 5.28125C 25.2367 5.54818 25.0739 5.8737 25.0088 6.25781L25.0088 6.25781L27.9482 6.25781C 27.9157 5.9388 27.8245 5.67839 27.6748 5.47656C 27.5316 5.27474 27.3558 5.125 27.1475 5.02734C 26.9391 4.92318 26.721 4.87109 26.4932 4.87109zM31.5127 4.08984C 31.7992 4.08984 32.0661 4.13216 32.3135 4.2168C 32.5609 4.29492 32.7399 4.3763 32.8506 4.46094L32.8506 4.46094L32.8506 5.32031C 32.7139 5.21615 32.5283 5.11523 32.2939 5.01758C 32.0596 4.91992 31.8187 4.87109 31.5713 4.87109C 31.2653 4.87109 31.0342 4.94271 30.8779 5.08594C 30.7282 5.22917 30.6533 5.37891 30.6533 5.53516C 30.6533 5.65885 30.6956 5.78581 30.7803 5.91602C 30.8714 6.03971 31.0277 6.14062 31.249 6.21875L31.249 6.21875L32.0693 6.51172C 32.3883 6.6224 32.626 6.7819 32.7822 6.99023C 32.9385 7.19857 33.0166 7.44271 33.0166 7.72266C 33.0166 7.99609 32.9385 8.24674 32.7822 8.47461C 32.6325 8.70247 32.4209 8.88477 32.1475 9.02148C 31.8805 9.15169 31.5713 9.2168 31.2197 9.2168C 31.0309 9.2168 30.8324 9.19076 30.624 9.13867C 30.4222 9.0931 30.2399 9.03776 30.0771 8.97266C 29.9144 8.90104 29.7939 8.83919 29.7158 8.78711L29.7158 8.78711L29.7158 7.92773C 29.807 7.99284 29.9339 8.06771 30.0967 8.15234C 30.266 8.23047 30.445 8.29883 30.6338 8.35742C 30.8226 8.40951 30.9984 8.43555 31.1611 8.43555C 31.4671 8.43555 31.708 8.36719 31.8838 8.23047C 32.0661 8.09375 32.1572 7.92448 32.1572 7.72266C 32.1572 7.56641 32.0954 7.44271 31.9717 7.35156C 31.8545 7.26042 31.682 7.17253 31.4541 7.08789L31.4541 7.08789L30.7314 6.82422C 30.3538 6.68099 30.1032 6.50195 29.9795 6.28711C 29.8558 6.06576 29.7939 5.8151 29.7939 5.53516C 29.7939 5.11849 29.9502 4.77344 30.2627 4.5C 30.5752 4.22656 30.9919 4.08984 31.5127 4.08984zM35.585 2.78125L35.585 4.1875L37.0107 4.1875L37.0107 4.93945L35.585 4.93945L35.585 7.80078C 35.585 8.0026 35.637 8.16211 35.7412 8.2793C 35.8454 8.39648 36.0049 8.45508 36.2197 8.45508C 36.415 8.45508 36.5778 8.43229 36.708 8.38672C 36.8382 8.33464 36.9521 8.2793 37.0498 8.2207L37.0498 8.2207L37.0498 8.875C 36.9196 8.97917 36.7796 9.06055 36.6299 9.11914C 36.4867 9.18424 36.2913 9.2168 36.0439 9.2168C 35.6273 9.2168 35.3115 9.0931 35.0967 8.8457C 34.8883 8.5918 34.7842 8.25651 34.7842 7.83984L34.7842 7.83984L34.7842 4.93945L33.8467 4.93945L33.8467 4.70508C 34.1657 4.56185 34.4326 4.32747 34.6475 4.00195C 34.8623 3.66992 35.0511 3.26302 35.2139 2.78125L35.2139 2.78125L35.585 2.78125zM39.1006 7.87891C 39.2894 7.87891 39.4489 7.94727 39.5791 8.08398C 39.7158 8.21419 39.7842 8.3737 39.7842 8.5625C 39.7842 8.74479 39.7158 8.9043 39.5791 9.04102C 39.4489 9.17773 39.2894 9.24609 39.1006 9.24609C 38.9118 9.24609 38.749 9.17773 38.6123 9.04102C 38.4821 8.9043 38.417 8.74479 38.417 8.5625C 38.417 8.3737 38.4821 8.21419 38.6123 8.08398C 38.749 7.94727 38.9118 7.87891 39.1006 7.87891zM41.249 2.33203C 41.4443 2.55339 41.6299 2.83333 41.8057 3.17188C 41.988 3.51042 42.1475 3.88151 42.2842 4.28516C 42.4209 4.6888 42.5283 5.09896 42.6064 5.51562C 42.6846 5.92578 42.7236 6.31315 42.7236 6.67773C 42.7236 7.06836 42.6846 7.47201 42.6064 7.88867C 42.5283 8.30534 42.4209 8.70898 42.2842 9.09961C 42.1475 9.49674 41.988 9.86133 41.8057 10.1934C 41.6299 10.5254 41.4443 10.8021 41.249 11.0234L41.249 11.0234L42.1377 11.0234C 42.4046 10.7435 42.6585 10.3757 42.8994 9.91992C 43.1403 9.4707 43.3356 8.96615 43.4854 8.40625C 43.6416 7.84635 43.7197 7.27018 43.7197 6.67773C 43.7197 6.25456 43.6742 5.83138 43.583 5.4082C 43.4984 4.98503 43.3812 4.57812 43.2314 4.1875C 43.0817 3.79688 42.9124 3.44206 42.7236 3.12305C 42.5348 2.80404 42.3395 2.54036 42.1377 2.33203L42.1377 2.33203L41.249 2.33203zM45.8682 3.97266C 46.057 3.97266 46.2165 4.04102 46.3467 4.17773C 46.4834 4.30794 46.5518 4.46745 46.5518 4.65625C 46.5518 4.83854 46.4834 4.99805 46.3467 5.13477C 46.2165 5.27148 46.057 5.33984 45.8682 5.33984C 45.6794 5.33984 45.5166 5.27148 45.3799 5.13477C 45.2497 4.99805 45.1846 4.83854 45.1846 4.65625C 45.1846 4.46745 45.2497 4.30794 45.3799 4.17773C 45.5166 4.04102 45.6794 3.97266 45.8682 3.97266zM45.8682 7.87891C 46.057 7.87891 46.2165 7.94727 46.3467 8.08398C 46.4834 8.21419 46.5518 8.3737 46.5518 8.5625C 46.5518 8.74479 46.4834 8.9043 46.3467 9.04102C 46.2165 9.17773 46.057 9.24609 45.8682 9.24609C 45.6794 9.24609 45.5166 9.17773 45.3799 9.04102C 45.2497 8.9043 45.1846 8.74479 45.1846 8.5625C 45.1846 8.3737 45.2497 8.21419 45.3799 8.08398C 45.5166 7.94727 45.6794 7.87891 45.8682 7.87891z" stroke="none" fill="#FFFFFF" fill-rule="nonzero" />
    <path d="M0.171875 28.2457C 0.171875 22.722853 4.6490273 18.2457 10.171875 18.2457L10.171875 18.2457L230.43088 18.2457C 235.95372 18.2457 240.43088 22.722853 240.43088 28.2457L240.43088 28.2457L240.43088 42.0001C 240.43088 47.522945 235.95372 52.0001 230.43088 52.0001L230.43088 52.0001L10.171875 52.0001C 4.6490273 52.0001 0.171875 47.522945 0.171875 42.0001L0.171875 42.0001L0.171875 28.2457z" stroke="none" fill="#102D49" fill-rule="nonzero" />
    <path d="M19.6513 40.0071C 18.8313 40.0071 18.1313 39.8671 17.5513 39.5871C 16.9813 39.2971 16.5163 38.9071 16.1563 38.4171C 15.8063 37.9271 15.5513 37.3621 15.3913 36.7221C 15.2313 36.0721 15.1513 35.3871 15.1513 34.6671L15.1513 34.6671L15.1513 33.8571C 15.1513 32.8471 15.3063 31.9371 15.6163 31.1271C 15.9363 30.3171 16.4263 29.6771 17.0863 29.2071C 17.7563 28.7271 18.6113 28.4871 19.6513 28.4871C 20.6913 28.4871 21.5413 28.7271 22.2013 29.2071C 22.8613 29.6771 23.3463 30.3171 23.6563 31.1271C 23.9763 31.9371 24.1363 32.8471 24.1363 33.8571L24.1363 33.8571L24.1363 34.6671C 24.1363 35.3871 24.0563 36.0721 23.8963 36.7221C 23.7363 37.3621 23.4763 37.9271 23.1163 38.4171C 22.7663 38.9071 22.3063 39.2971 21.7363 39.5871C 21.1663 39.8671 20.4713 40.0071 19.6513 40.0071zM19.6513 38.6871C 20.6913 38.6871 21.4513 38.3371 21.9313 37.6371C 22.4213 36.9271 22.6663 35.8071 22.6663 34.2771C 22.6663 32.6771 22.4163 31.5321 21.9163 30.8421C 21.4263 30.1521 20.6713 29.8071 19.6513 29.8071C 18.6213 29.8071 17.8563 30.1521 17.3563 30.8421C 16.8663 31.5321 16.6213 32.6671 16.6213 34.2471C 16.6213 35.7871 16.8663 36.9121 17.3563 37.6221C 17.8463 38.3321 18.6113 38.6871 19.6513 38.6871zM26.3138 39.7371L26.3138 37.9071L28.0538 37.9071L28.0538 39.7371L26.3138 39.7371zM34.7245 40.0071C 33.9045 40.0071 33.2045 39.8671 32.6245 39.5871C 32.0545 39.2971 31.5895 38.9071 31.2295 38.4171C 30.8795 37.9271 30.6245 37.3621 30.4645 36.7221C 30.3045 36.0721 30.2245 35.3871 30.2245 34.6671L30.2245 34.6671L30.2245 33.8571C 30.2245 32.8471 30.3795 31.9371 30.6895 31.1271C 31.0095 30.3171 31.4995 29.6771 32.1595 29.2071C 32.8295 28.7271 33.6845 28.4871 34.7245 28.4871C 35.7645 28.4871 36.6145 28.7271 37.2745 29.2071C 37.9345 29.6771 38.4195 30.3171 38.7295 31.1271C 39.0495 31.9371 39.2095 32.8471 39.2095 33.8571L39.2095 33.8571L39.2095 34.6671C 39.2095 35.3871 39.1295 36.0721 38.9695 36.7221C 38.8095 37.3621 38.5495 37.9271 38.1895 38.4171C 37.8395 38.9071 37.3795 39.2971 36.8095 39.5871C 36.2395 39.8671 35.5445 40.0071 34.7245 40.0071zM34.7245 38.6871C 35.7645 38.6871 36.5245 38.3371 37.0045 37.6371C 37.4945 36.9271 37.7395 35.8071 37.7395 34.2771C 37.7395 32.6771 37.4895 31.5321 36.9895 30.8421C 36.4995 30.1521 35.7445 29.8071 34.7245 29.8071C 33.6945 29.8071 32.9295 30.1521 32.4295 30.8421C 31.9395 31.5321 31.6945 32.6671 31.6945 34.2471C 31.6945 35.7871 31.9395 36.9121 32.4295 37.6221C 32.9195 38.3321 33.6845 38.6871 34.7245 38.6871z" stroke="none" fill="#758492" fill-rule="nonzero" />
    <path d="M165.219 31.125L165.219 35.8945C 165.219 36.5742 165.074 37.1602 164.785 37.6523C 164.504 38.1367 164.121 38.5078 163.637 38.7656C 163.152 39.0234 162.602 39.1523 161.984 39.1523C 161.375 39.1523 160.824 39.0234 160.332 38.7656C 159.848 38.5078 159.461 38.1367 159.172 37.6523C 158.891 37.1602 158.75 36.5742 158.75 35.8945L158.75 35.8945L158.75 31.125L159.805 31.125L159.805 35.8594C 159.805 36.3906 159.902 36.8203 160.098 37.1484C 160.301 37.4766 160.566 37.7148 160.895 37.8633C 161.23 38.0039 161.594 38.0742 161.984 38.0742C 162.375 38.0664 162.734 37.9922 163.062 37.8516C 163.398 37.7031 163.664 37.4688 163.859 37.1484C 164.062 36.8203 164.164 36.3906 164.164 35.8594L164.164 35.8594L164.164 31.125L165.219 31.125zM169.578 31.0312C 170.039 31.0312 170.418 31.0977 170.715 31.2305C 171.02 31.3633 171.285 31.5039 171.512 31.6523L171.512 31.6523L171.512 32.7422C 171.293 32.5781 171.027 32.4258 170.715 32.2852C 170.402 32.1367 170.062 32.0625 169.695 32.0625C 169.461 32.0625 169.215 32.1055 168.957 32.1914C 168.707 32.2695 168.496 32.3984 168.324 32.5781C 168.152 32.7578 168.066 32.9883 168.066 33.2695C 168.066 33.582 168.18 33.8203 168.406 33.9844C 168.633 34.1484 168.906 34.3047 169.227 34.4531L169.227 34.4531L170.305 34.9453C 170.844 35.1875 171.25 35.457 171.523 35.7539C 171.797 36.0508 171.934 36.4453 171.934 36.9375C 171.934 37.3672 171.809 37.7461 171.559 38.0742C 171.309 38.3945 170.98 38.6484 170.574 38.8359C 170.168 39.0234 169.723 39.1172 169.238 39.1172C 168.785 39.1172 168.367 39.0391 167.984 38.8828C 167.602 38.7266 167.27 38.5508 166.988 38.3555L166.988 38.3555L166.988 37.2656C 167.293 37.4766 167.641 37.668 168.031 37.8398C 168.43 38.0039 168.879 38.0859 169.379 38.0859C 169.77 38.0859 170.113 37.9883 170.41 37.793C 170.707 37.5977 170.855 37.3281 170.855 36.9844C 170.855 36.7891 170.793 36.6211 170.668 36.4805C 170.551 36.3398 170.406 36.2188 170.234 36.1172C 170.062 36.0156 169.895 35.9297 169.73 35.8594L169.73 35.8594L168.43 35.2734C 167.867 35.0234 167.484 34.7305 167.281 34.3945C 167.078 34.0586 166.977 33.6719 166.977 33.2344C 166.977 32.8203 167.094 32.4492 167.328 32.1211C 167.57 31.7852 167.891 31.5195 168.289 31.3242C 168.688 31.1289 169.117 31.0312 169.578 31.0312zM176.691 30.9609C 177.574 30.9609 178.32 31.1406 178.93 31.5C 179.547 31.8594 180.016 32.3477 180.336 32.9648C 180.664 33.5742 180.828 34.2656 180.828 35.0391C 180.828 35.8125 180.664 36.5078 180.336 37.125C 180.016 37.7344 179.547 38.2188 178.93 38.5781C 178.32 38.9375 177.574 39.1172 176.691 39.1172C 176.152 39.1172 175.656 39.0898 175.203 39.0352C 174.75 38.9805 174.285 38.9102 173.809 38.8242L173.809 38.8242L173.809 31.2539C 174.285 31.168 174.75 31.0977 175.203 31.043C 175.656 30.9883 176.152 30.9609 176.691 30.9609zM176.691 31.957C 176.41 31.957 176.109 31.9688 175.789 31.9922C 175.469 32.0078 175.16 32.0352 174.863 32.0742L174.863 32.0742L174.863 38.0039C 175.16 38.0352 175.469 38.0625 175.789 38.0859C 176.109 38.1094 176.41 38.1211 176.691 38.1211C 177.324 38.1211 177.867 37.9883 178.32 37.7227C 178.781 37.4492 179.133 37.082 179.375 36.6211C 179.625 36.1523 179.75 35.625 179.75 35.0391C 179.75 34.4531 179.625 33.9297 179.375 33.4688C 179.133 33 178.781 32.6328 178.32 32.3672C 177.867 32.0938 177.324 31.957 176.691 31.957zM186.137 30.9727C 186.707 30.9727 187.172 31.0508 187.531 31.207C 187.898 31.3633 188.219 31.5664 188.492 31.8164L188.492 31.8164L188.492 32.9766C 188.32 32.8516 188.125 32.7148 187.906 32.5664C 187.695 32.418 187.445 32.2891 187.156 32.1797C 186.875 32.0625 186.535 32.0039 186.137 32.0039C 185.551 32.0039 185.027 32.1367 184.566 32.4023C 184.105 32.668 183.742 33.0352 183.477 33.5039C 183.211 33.9648 183.078 34.4883 183.078 35.0742C 183.078 35.6602 183.211 36.1836 183.477 36.6445C 183.742 37.1055 184.105 37.4727 184.566 37.7461C 185.027 38.0117 185.551 38.1445 186.137 38.1445C 186.738 38.1445 187.25 38.0469 187.672 37.8516C 188.102 37.6484 188.453 37.4414 188.727 37.2305L188.727 37.2305L188.727 38.2852C 188.453 38.5273 188.094 38.7383 187.648 38.918C 187.211 39.0898 186.707 39.1758 186.137 39.1758C 185.543 39.1758 184.996 39.0703 184.496 38.8594C 183.996 38.6406 183.559 38.3438 183.184 37.9688C 182.809 37.5938 182.516 37.1602 182.305 36.668C 182.102 36.168 182 35.6367 182 35.0742C 182 34.5117 182.102 33.9844 182.305 33.4922C 182.516 32.9922 182.809 32.5547 183.184 32.1797C 183.559 31.8047 183.996 31.5117 184.496 31.3008C 184.996 31.082 185.543 30.9727 186.137 30.9727z" stroke="none" fill="#FFFFFF" fill-rule="nonzero" />
    <path d="M121.794 29.9302L121.794 39.667" stroke="#11A0CC" stroke-width="1" fill="none" />
	<g>
        <path d="M214.563 33.0707L217.601 35.4137L220.609 33.0545L221.543 33.7758L217.61 36.8664L213.639 33.797L214.563 33.0707z" stroke="none" fill="#FFFFFF" fill-rule="nonzero" />
	</g>
    <path d="M133.859 27.4885L148.95279 27.4885L148.95279 41.7511L133.859 41.7511z" stroke="none" fill="none" />
</g>
</svg>